<?xml version="1.0" standalone="no"?>
<!DOCTYPE svg PUBLIC "-//W3C//DTD SVG 1.1//EN" "http://www.w3.org/Graphics/SVG/1.1/DTD/svg11.dtd" >
<svg>
<metadata>
Created by FontForge 20090914 at Fri Oct 28 22:04:12 2016
 By www-data
</metadata>
<defs>
<font id="luna-Regular" horiz-adv-x="897" >
  <font-face 
    font-family="luna"
    font-weight="400"
    font-stretch="normal"
    units-per-em="2048"
    panose-1="2 11 6 3 5 3 2 2 2 4"
    ascent="1638"
    descent="-410"
    x-height="737.001"
    cap-height="1418"
    bbox="-84.2041 -1553 1715.24 2132"
    underline-thickness="0"
    underline-position="0"
    unicode-range="U+0020-U+00FC"
  />
<missing-glyph horiz-adv-x="2048" 
d="M513 784c30.667 8.66699 52.999 -0.99707 66.999 -28.9971s13.667 -52.333 -1 -73c19.333 -12.667 30 -29.667 32 -51c7.33301 -92.667 17 -184.834 29 -276.501s26 -182.834 42 -273.501c6.66699 -40.667 -10.166 -66.5 -50.499 -77.5s-63.833 3.5 -70.5 43.5
c-18.667 110 -34.667 219.333 -48 328c-24 -45.333 -51.667 -90.333 -83 -135s-76.833 -96 -136.5 -154s-120.5 -67 -182.5 -27c-74 48 -107.5 112.167 -100.5 192.5s32.833 152.166 77.5 215.499c52 72 114.333 136.833 187 194.5s152 98.5 238 122.5zM486.999 639.003
c-115.333 -48.667 -209.668 -124 -283.001 -226c-16.667 -23.333 -33 -49 -49 -77s-23.667 -57 -23 -87c0 -24.667 5.33301 -43 16 -55c14 -14 22.333 -21.667 25 -23c1.33301 -1.33301 2.33301 -1.66602 3 -0.999023c13.333 0.666992 28.5 8 45.5 22s31.833 28 44.5 42
c35.333 39.333 70 87.666 104 144.999c22.667 38 45.834 79.333 69.501 124s39.5 90 47.5 136z" />
    <glyph glyph-name=".notdef" horiz-adv-x="2048" 
d="M513 784c30.667 8.66699 52.999 -0.99707 66.999 -28.9971s13.667 -52.333 -1 -73c19.333 -12.667 30 -29.667 32 -51c7.33301 -92.667 17 -184.834 29 -276.501s26 -182.834 42 -273.501c6.66699 -40.667 -10.166 -66.5 -50.499 -77.5s-63.833 3.5 -70.5 43.5
c-18.667 110 -34.667 219.333 -48 328c-24 -45.333 -51.667 -90.333 -83 -135s-76.833 -96 -136.5 -154s-120.5 -67 -182.5 -27c-74 48 -107.5 112.167 -100.5 192.5s32.833 152.166 77.5 215.499c52 72 114.333 136.833 187 194.5s152 98.5 238 122.5zM486.999 639.003
c-115.333 -48.667 -209.668 -124 -283.001 -226c-16.667 -23.333 -33 -49 -49 -77s-23.667 -57 -23 -87c0 -24.667 5.33301 -43 16 -55c14 -14 22.333 -21.667 25 -23c1.33301 -1.33301 2.33301 -1.66602 3 -0.999023c13.333 0.666992 28.5 8 45.5 22s31.833 28 44.5 42
c35.333 39.333 70 87.666 104 144.999c22.667 38 45.834 79.333 69.501 124s39.5 90 47.5 136z" />
    <glyph glyph-name="space" unicode=" " horiz-adv-x="1000" 
 />
    <glyph glyph-name="exclam" unicode="!" horiz-adv-x="316" 
d="M26 1343c2 40 23.8311 60 65.498 60s61.834 -20 60.501 -60c-7.33301 -166 -11.666 -332 -12.999 -498s-2 -332 -2 -498c0 -40.667 -20.833 -61 -62.5 -61s-62.5 20.333 -62.5 61c0 166 0.666992 332 2 498s5.33301 332 12 498zM60.998 0c-40 0 -60 20.833 -60 62.5
s20 62.5 60 62.5s60 -20.833 60 -62.5s-20 -62.5 -60 -62.5z" />
    <glyph glyph-name="quotedbl" unicode="&#x22;" horiz-adv-x="480" 
d="M169 1951c38 0 57 -19 57 -57v-196c0 -38 -19 -57 -57 -57v0c-38 0 -57 19 -57 57v196c0 38 19 57 57 57zM353 1951c38 0 57 -19 57 -57v-196c0 -38 -19 -57 -57 -57v0c-37.333 0 -56 19 -56 57v196c0 38 18.667 57 56 57z" />
    <glyph glyph-name="numbersign" unicode="#" horiz-adv-x="986" 
d="M829 861c40 -2 59.9961 -23.8301 59.9961 -65.4971s-20 -61.5 -60 -59.5c-62.667 2.66699 -124.334 4.66699 -185.001 6l2 -56.5l2 -55.5c30 2 60.333 4.5 91 7.5s61.334 6.5 92.001 10.5v0c40 4.66699 59.833 -13.833 59.5 -55.5s-20.166 -64.834 -59.499 -69.501
c-30 -4 -60.167 -7.5 -90.5 -10.5s-60.5 -5.5 -90.5 -7.5c0 -34.667 0.166992 -69.334 0.5 -104.001s0.5 -69.334 0.5 -104.001c0 -40 -20.833 -60 -62.5 -60s-62.5 20 -62.5 60c0 33.333 -0.166992 66.666 -0.5 99.999s-0.5 66.666 -0.5 99.999
c-29.333 -1.33301 -51.666 -2 -66.999 -2c0 -34.667 0.166992 -69 0.5 -103s0.5 -68 0.5 -102c0 -40.667 -20.833 -61 -62.5 -61s-62.5 20.333 -62.5 61c0 33.333 -0.166992 66.666 -0.5 99.999s-0.5 67 -0.5 101c-40 -1.33301 -80.167 -2.33301 -120.5 -3
s-80.5 -1 -120.5 -1c-40.667 0 -61 20.833 -61 62.5s20.333 62.834 61 63.501c79.333 0 159 1 239 3l-2 64l-2 65c-44.667 0 -89.167 -0.333008 -133.5 -1s-88.5 -1 -132.5 -1c-40 -0.666992 -60 20 -60 62s20 63 60 63c42.667 0 85.5 0.333008 128.5 1s86.5 1 130.5 1
c-4 52.667 -9 105.667 -15 159v0c-4.66699 40 13.833 59.833 55.5 59.5s64.834 -20.166 69.501 -59.499c6 -53.333 11 -106.333 15 -159h33h34c-4.66699 56 -9.66699 111.667 -15 167v0c-4.66699 40 13.833 59.833 55.5 59.5s64.834 -20.166 69.501 -59.499
c6.66699 -56 11.667 -112.333 15 -169c32 -1.33301 64 -2.5 96 -3.5s64 -2.16699 96 -3.5zM451.996 745.003l2 -63.5l2 -61.5c15.333 0 37.666 0.666992 66.999 2l-2 61l-2 61c-11.333 0 -22.666 0.166992 -33.999 0.5s-22.333 0.5 -33 0.5z" />
    <glyph glyph-name="dollar" unicode="$" horiz-adv-x="1099" 
d="M538 1288c42.667 0 64.001 -19.001 64.001 -57.001v-50c60 14 116.667 21 170 21v0c40 0 60 -18.5 60 -55.5s-20 -55.5 -60 -55.5c-52.667 0 -109.334 -8.66699 -170.001 -26v-598c34.667 -8.66699 74 -20.334 118 -35.001c56 -19.333 114.333 -44.666 175 -75.999
s99.667 -75 117 -131c28 -94.667 -7.66699 -177 -107 -247s-200.333 -129 -303 -177v-135c0 -38 -21.333 -57 -64 -57v0c-42 0 -63 19 -63 57v78c-42 -18.667 -71.333 -33.667 -88 -45c-31.333 -22 -61.833 -20 -91.5 6s-28.5 50 3.5 72
c10 7.33301 31.167 19.666 63.5 36.999l112.5 59v510c-26 6 -51.833 11.5 -77.5 16.5s-51.167 10.5 -76.5 16.5c-56 12 -109.5 25.333 -160.5 40s-91.167 46.334 -120.5 95.001c-52 86 -56 168.833 -12 248.5s104.667 146.834 182 201.501c82.667 58 171 105 265 141v89
c0 38 21 57 63 57zM602.001 351.999l0.000976562 -412.001l169 93c51.333 29.333 82 51 92 65c14.667 22 24 40 28 54c2.66699 9.33301 4 15.333 4 18v11c-6 25.333 -23.667 49.333 -53 72c-28.667 20 -67.334 39.333 -116.001 58c-32.667 12.667 -74 26.334 -124 41.001z
M475.002 496.998l-0.000976562 521.002c-35.333 -15.333 -65.666 -30.333 -90.999 -45c-51.333 -28 -106.5 -64.833 -165.5 -110.5s-90.5 -97.834 -94.5 -156.501c-4.66699 -40 5.33301 -76.333 30 -109c10 -15.333 18.333 -25.333 25 -30c-8.66699 6 -10.667 7.5 -6 4.5
s8.66699 -5.16699 12 -6.5c8 -3.33301 9.16699 -3.83301 3.5 -1.5s-5.5 2.5 0.5 0.5c2 -1.33301 4.16699 -2.33301 6.5 -3s4.83301 -1.33398 7.5 -2.00098c13.333 -4 23.333 -6.66699 30 -8c21.333 -6 47 -12.333 77 -19l82 -17.5z" />
    <glyph glyph-name="uni0025" unicode="%" horiz-adv-x="1112" 
d="M16 928c-1.33301 42.667 20.333 62.668 65 60.001c4.66699 6.66699 8.33398 11 11.001 13c36.667 34 79.334 53.833 128.001 59.5s95 -5.5 139 -33.5c37.333 -24.667 62.166 -60.167 74.499 -106.5s4.83301 -88.5 -22.5 -126.5c-28.667 -40 -64.834 -69.333 -108.501 -88
s-89.5 -18.334 -137.5 0.999023c-46 18 -81.833 47.333 -107.5 88s-39.5 85 -41.5 133zM147.999 896.001c12 -33.333 35 -58.166 69 -74.499s62.667 -4.5 86 35.5c18.667 31.333 9.66699 55.666 -27 72.999c-34 15.333 -66 9.33301 -96 -18
c-10 -8.66699 -20.667 -14 -32 -16zM584.999 373.001c-2.66699 43.333 19 63.6689 65 61.002c1.33301 2.66699 4.66602 6.66699 9.99902 12c37.333 34 80.333 53.833 129 59.5s95 -5.5 139 -33.5c36.667 -24.667 61.334 -60 74.001 -106s5.33398 -88 -21.999 -126
c-28.667 -40.667 -64.834 -70.334 -108.501 -89.001s-89.5 -18.334 -137.5 0.999023c-46 18 -81.833 47.333 -107.5 88s-39.5 85 -41.5 133zM716.999 341.004c12 -32.667 35 -57.333 69 -74s62.667 -4.66699 86 36c18 32 9 56.333 -27 73c-34 14.667 -66 8.66699 -96 -18
c-9.33301 -9.33301 -20 -15 -32 -17zM118.999 29.0049c-22 -32.667 -51 -38.833 -87 -18.5s-43 47.5 -21 81.5c114 174 242.5 337 385.5 489l434.5 448c28 28 56.833 27.333 86.5 -2s30.5 -58 2.5 -86l-425 -436.5c-140 -147.667 -265.333 -306.167 -376 -475.5z" />
    <glyph glyph-name="ampersand" unicode="&#x26;" horiz-adv-x="922" 
d="M365 1288c-2 40 17.833 60.001 59.5 60.001s63.5 -20 65.5 -60c0.666992 -36 1 -72.333 1 -109s-1.66699 -73 -5 -109c50 -4 97 -17 141 -39c36 -18.667 43.5 -46 22.5 -82s-49.5 -44.667 -85.5 -26c-68.667 34.667 -145.167 36.834 -229.5 6.50098
s-148.833 -76.166 -193.5 -137.499c46 -34 98.667 -46.333 158 -37s116 19 170 29c39.333 7.33301 64.333 -7.83398 75 -45.501s-3.33301 -62.5 -42 -74.5c-46.667 -16 -93.167 -33 -139.5 -51s-89.833 -41 -130.5 -69c-16.667 -12 -40.834 -37.833 -72.501 -77.5
s-25.167 -66.834 19.5 -81.501c48 -16 99.333 -17.333 154 -4s105 27 151 41c44 13.333 87.667 28.166 131 44.499s87.333 30.833 132 43.5c38.667 10 63.334 -5.16699 74.001 -45.5s-3 -65.5 -41 -75.5c-42.667 -12 -84.5 -25.5 -125.5 -40.5s-82.5 -29.167 -124.5 -42.5
v-0.5v-0.5c-16.667 -86.667 -19.667 -162 -9 -226c6 -40 -11.167 -65.333 -51.5 -76s-63.5 3.33301 -69.5 42c-11.333 70.667 -11.666 145.667 -0.999023 225c-52.667 -12 -109.667 -19 -171 -21s-112 17 -152 57c-52 52 -66.667 109.667 -44 173s59 114 109 152
c3.33301 3.33301 9 7.66602 17 12.999c-57.333 16 -104 47 -140 93c-18 24.667 -21.333 50 -10 76c31.333 64 79.166 118.333 143.499 163s133.5 74 207.5 88c1.33301 12 2 20.333 2 25c1.33301 29.333 2 51 2 65c2 48.667 2.66699 93.334 2 134.001z" />
    <glyph glyph-name="quotesingle" unicode="'" horiz-adv-x="353" 
d="M169 1951c38 0 57 -19 57 -57v-196c0 -38 -19 -57 -57 -57v0c-38 0 -57 19 -57 57v196c0 38 19 57 57 57z" />
    <glyph glyph-name="parenleft" unicode="(" horiz-adv-x="429" 
d="M178 1532c19.333 35.333 47.167 42.334 83.5 21.001s44.5 -49.333 24.5 -84c-124 -218 -176.667 -450 -158 -696c8 -118 29 -233.667 63 -347s75 -223.333 123 -330c16 -36.667 6 -65.334 -30 -86.001s-62 -13 -78 23c-54 119.333 -100 242.666 -138 369.999
s-60 257 -66 389c-10.667 266.667 48 513.334 176 740.001z" />
    <glyph glyph-name="parenright" unicode=")" horiz-adv-x="429" 
d="M143 1532c129.333 -230 188.001 -476.669 176.001 -740.002c-6 -132 -28.167 -261.667 -66.5 -389s-84.5 -250.666 -138.5 -369.999c-16.667 -36 -42.834 -43.667 -78.501 -23s-45.5 49.334 -29.5 86.001c48 106.667 89 216.667 123 330s55.333 229 64 347
c16.667 246 -36 478 -158 696c-20 34.667 -12 62.667 24 84s64 14.333 84 -21z" />
    <glyph glyph-name="asterisk" unicode="*" horiz-adv-x="720" 
d="M233 759c-22.667 -32 -49.167 -34.666 -79.5 -7.99902s-34.5 56 -12.5 88l10 14l11 15c-6 -2.66699 -14.333 -6 -25 -10v0c-38 -15.333 -62.5 -2.83301 -73.5 37.5s2.16699 68.166 39.5 83.499l125 44c-21.333 32.667 -41 67 -59 103c-18 34 -10.167 62.167 23.5 84.5
s59.5 16.5 77.5 -17.5c4 -8 9.33301 -18 16 -30c0 7.33301 0.5 15 1.5 23s1.83301 16 2.5 24c4 39.333 27 59.166 69 59.499s61 -19.5 57 -59.5c-3.33301 -23.333 -5.33301 -46 -6 -68c13.333 12.667 30.333 27 51 43c28.667 24 54 20.5 76 -10.5s21 -59.167 -3 -84.5l20 2
c6.66699 0.666992 13.667 1.66699 21 3c40 4 60 -15 60 -57s-20 -64.667 -60 -68c-46.667 -5.33301 -95.334 -13 -146.001 -23c30 -39.333 62 -76.333 96 -111v0c26 -28.667 25.667 -58.334 -1 -89.001s-53 -31.667 -79 -3c-2.66699 2 -5.16699 4.33301 -7.5 7
s-4.5 5.33398 -6.5 8.00098v-1v-1v0c6.66699 -39.333 -10.166 -64.666 -50.499 -75.999s-63.5 3 -69.5 43c-8 42 -13.667 81.333 -17 118c-14 -18 -34.333 -45.667 -61 -83z" />
    <glyph glyph-name="plus" unicode="+" horiz-adv-x="619" 
d="M75 442c-38 -15.333 -61.999 -2.83203 -71.999 37.501s3 67.833 39 82.5c59.333 23.333 118.666 43.333 177.999 60c0 56.667 3 113.667 9 171c4 39.333 26.833 59.166 68.5 59.499s60.5 -19.5 56.5 -59.5c-5.33301 -47.333 -8.33301 -94 -9 -140
c62 12 118.333 20.333 169 25c40 4 59.833 -14.833 59.5 -56.5s-20.166 -64.5 -59.499 -68.5c-48 -4.66699 -103.333 -13.667 -166 -27c4 -66 11.333 -127.667 22 -185v0c6 -40 -11 -65.5 -51 -76.5s-63.333 3.5 -70 43.5c-10.667 66 -18.334 128 -23.001 186
c-42 -12.667 -92.333 -30 -151 -52z" />
    <glyph glyph-name="comma" unicode="," horiz-adv-x="341" 
d="M102 153c54.667 0 82 -28.668 82 -86.001c0 -33.333 -13.333 -57.666 -40 -72.999l-66 -55.5l-66 -57.5c-22.667 -20 -45.667 -18.5 -69 4.5s-23 44.5 1 64.5l87 75c-7.33301 13.333 -11 27.333 -11 42c0 57.333 27.333 86 82 86z" />
    <glyph glyph-name="hyphen" unicode="-" horiz-adv-x="619" 
d="M77 432c-38.667 -13.333 -63.332 0.166016 -73.999 40.499s2.66602 66.833 39.999 79.5c68 22.667 136.167 43.334 204.5 62.001s138.5 32 210.5 40c40 4 60 -14.833 60 -56.5s-20 -64.5 -60 -68.5c-66 -8 -130.5 -21.167 -193.5 -39.5s-125.5 -37.5 -187.5 -57.5z" />
    <glyph glyph-name="period" unicode="." horiz-adv-x="341" 
d="M87 5c-56 0 -84 27.667 -84 83s28 83 84 83s84 -27.667 84 -83s-28 -83 -84 -83z" />
    <glyph glyph-name="slash" unicode="/" horiz-adv-x="1024" 
d="M119 29c-22 -32.667 -51 -38.833 -87 -18.5s-43 47.5 -21 81.5c114 174 242.5 337 385.5 489l434.5 448c28 28 56.833 27.333 86.5 -2s30.5 -58 2.5 -86l-425 -436.5c-140 -147.667 -265.333 -306.167 -376 -475.5z" />
    <glyph glyph-name="zero" unicode="0" horiz-adv-x="1150" 
d="M2 403c-5.33301 25.333 0.333984 45.167 17.001 59.5s35 20.5 55 18.5c-46.667 8 -62.667 33 -48 75c34 104.667 89.667 197.834 167 279.501s169 140.167 275 175.5c84 28 174.167 35.833 270.5 23.5s174.5 -55.833 234.5 -130.5c64 -80.667 99.167 -176.5 105.5 -287.5
s-6.5 -213.5 -38.5 -307.5c-27.333 -78 -69.333 -145 -126 -201s-127 -90 -211 -102c-76 -10.667 -152.333 -6.33398 -229 12.999s-147.334 48.666 -212.001 87.999c-56 32.667 -109.333 73.834 -160 123.501s-84 107.167 -100 172.5zM78 480.001
c22.667 -4 37.668 -18.334 45.001 -43.001c18 -74 67.667 -137.5 149 -190.5s159.666 -88.5 234.999 -106.5c60.667 -15.333 124.667 -18.166 192 -8.49902s121.333 42.5 162 98.5c49.333 68.667 78.666 155 87.999 259c4 48 4.33301 97.667 1 149s-17.666 99 -42.999 143
c-40 68 -96.667 109.833 -170 125.5s-145.333 12.5 -216 -9.5c-88.667 -28 -166.167 -75.333 -232.5 -142s-113.5 -144 -141.5 -232c-10.667 -32.667 -33.667 -47 -69 -43z" />
    <glyph glyph-name="one" unicode="1" horiz-adv-x="581" 
d="M91 819c-33.333 -23.333 -60.165 -16.999 -80.498 19.001s-14.5 65.667 17.5 89c54 36.667 108.833 72 164.5 106l168.5 100c16 9.33301 34.333 10.5 55 3.5s33 -20.5 37 -40.5c32.667 -170.667 53.167 -342.834 61.5 -516.501s10.166 -346.5 5.49902 -518.5
c-1.33301 -40 -22.833 -60 -64.5 -60s-61.834 20 -60.501 60c4 152.667 3.33301 306 -2 460s-20.333 307 -45 459l-130.5 -79z" />
    <glyph glyph-name="two" unicode="2" 
d="M94 937c-36 -20 -64.167 -11.998 -84.5 24.002s-13.166 63.667 21.501 83c38 20.667 73.5 44.167 106.5 70.5s70.167 47.5 111.5 63.5c108 38.667 201 22 279 -50c50 -48 70 -103.5 60 -166.5s-27 -121.833 -51 -176.5c-32.667 -74.667 -70.167 -146.667 -112.5 -216
l-125.5 -208l-54 -92.5c-18 -31 -34.333 -62.5 -49 -94.5l-2 -4l270 118.5l269 121.5c36 16 64.667 6 86 -30s13.666 -62.333 -23.001 -79l-331 -148l-331 -146c-56 -23.333 -87.333 -5.33301 -94 54c-6.66699 49.333 4.16602 100.5 32.499 153.5l77.5 140.5l114.5 190
c39 62.667 76.167 127 111.5 193c14.667 28 28.834 56.667 42.501 86s25.167 59.666 34.5 90.999c8 29.333 12.333 50 13 62c0 15.333 -0.333008 23.666 -1 24.999c-6.66699 16.667 -8.33398 21.667 -5.00098 15c-15.333 26.667 -40.666 44 -75.999 52
c-36.667 8 -74 2.33301 -112 -17c-32 -16 -62 -35.167 -90 -57.5s-57.333 -41.5 -88 -57.5z" />
    <glyph glyph-name="three" unicode="3" horiz-adv-x="821" 
d="M77 986c-38.667 -12 -63.3242 2.16309 -73.9912 42.4961s3 66.5 41 78.5l131.5 37c43.667 12 88.5 21 134.5 27c41.333 5.33301 84.333 5.33301 129 0s81 -26 109 -62c44 -58 47.833 -118.167 11.5 -180.5s-80.5 -118.833 -132.5 -169.5
c52 -3.33301 102.833 -12.833 152.5 -28.5s90.167 -43.167 121.5 -82.5c36.667 -47.333 51.5 -99.166 44.5 -155.499s-24.167 -108.5 -51.5 -156.5c-61.333 -106 -147 -194.333 -257 -265c-42.667 -26.667 -89.334 -47.5 -140.001 -62.5s-100.334 -11.5 -149.001 10.5
c-36.667 16 -44.334 42 -23.001 78s50.333 46 87 30c-1.33301 0 1.66699 -0.666992 9 -2c1.33301 0 3.66602 -0.166992 6.99902 -0.5s5.66602 -0.5 6.99902 -0.5c12.667 0.666992 27 3.33398 43 8.00098c33.333 10.667 69.666 29.334 108.999 56.001
c84.667 58.667 149.667 127 195 205c24.667 42 38 75.667 40 101c2.66699 34 -3.33301 59 -18 75c-38 40 -91.333 61.167 -160 63.5s-129 1.83301 -181 -1.5c-28 -2 -47.333 10.833 -58 38.5s-6.33398 50.5 12.999 68.5c9.33301 8.66699 29.666 26.5 60.999 53.5
s62 56.333 92 88s54 62.5 72 92.5s18.333 52.667 1 68c-19.333 15.333 -47.333 20 -84 14s-65.334 -11 -86.001 -15c-34 -7.33301 -67.167 -15.666 -99.5 -24.999z" />
    <glyph glyph-name="four" unicode="4" horiz-adv-x="771" 
d="M595 60c2 -40 -17.834 -60.001 -59.501 -60.001s-63.5 20 -65.5 60c-9.33301 164 -16.333 329.333 -21 496c-64.667 -6 -129 -12.667 -193 -20l-192 -21c-22.667 -2.66699 -40.667 7.83301 -54 31.5s-13.333 44.5 0 62.5c78 101.333 148.833 207.833 212.5 319.5
s135.5 217.5 215.5 317.5c18 23.333 39.833 27.833 65.5 13.5s39.5 -33.5 41.5 -57.5c5.33301 -85.333 9.83301 -170.666 13.5 -255.999l10.5 -256c15.333 1.33301 38.666 2.66602 69.999 3.99902c40 2 60 -18 60 -60s-20 -63.667 -60 -65
c-29.333 -1.33301 -51.333 -2.66602 -66 -3.99902c2.66699 -84 5.83398 -168.167 9.50098 -252.5s7.83398 -168.5 12.501 -252.5zM443.999 680.999c-2 56.667 -4.16699 113.667 -6.5 171s-4.83301 115 -7.5 173c-40.667 -60.667 -79.667 -122.5 -117 -185.5
s-76.333 -124.5 -117 -184.5c41.333 4 82.5 8.33301 123.5 13s82.5 9 124.5 13z" />
    <glyph glyph-name="five" unicode="5" horiz-adv-x="809" 
d="M418 1223c40 2.66699 60 -16.8311 60 -58.498s-20 -63.834 -60 -66.501c-42.667 -4 -85.167 -9 -127.5 -15l-126.5 -18c0 -52.667 1.66699 -97.334 5 -134.001c82 16 165.667 13.5 251 -7.5s157 -63.167 215 -126.5c73.333 -80.667 112 -174.667 116 -282
s-20 -207.333 -72 -300c-40.667 -74 -99.834 -133.333 -177.501 -178s-159.167 -50 -244.5 -16c-88 36 -152.667 94 -194 174s-62.333 165.333 -63 256c0 40 20.667 60 62 60s62.333 -20 63 -60c0.666992 -61.333 14.834 -124.833 42.501 -190.5
s74.834 -107.5 141.501 -125.5c63.333 -18 119 -7.83301 167 30.5s84.333 84.833 109 139.5c30.667 69.333 44 143.333 40 222s-36 145 -96 199c-54.667 48.667 -117.5 77.5 -188.5 86.5s-140.167 1.83301 -207.5 -21.5c-15.333 -5.33301 -31.333 -3.33301 -48 6
s-26.334 22 -29.001 38c-8 46.667 -12.833 93.667 -14.5 141s-2.5 95 -2.5 143c0 35.333 15.333 55.333 46 60l165.5 24.5c55.667 8.33301 111.5 14.833 167.5 19.5z" />
    <glyph glyph-name="six" unicode="6" horiz-adv-x="809" 
d="M310 518c-34.667 -22 -62.3301 -14.835 -82.9971 21.498s-14 65.166 20 86.499c72 44 140.667 64.667 206 62c126 -7.33301 218.333 -71.5 277 -192.5s50.334 -233.5 -24.999 -337.5c-72 -98.667 -168.333 -151 -289 -157s-219.334 40 -296.001 138
c-80.667 104.667 -120.334 224.334 -119.001 359.001s32 259 92 373c40 75.333 107.167 153.5 201.5 234.5s186.833 85.167 277.5 12.5c30.667 -26 31.167 -53.667 1.5 -83s-59.834 -31 -90.501 -5c-26.667 21.333 -58.667 17.333 -96 -12s-64 -52.333 -80 -69
c-56 -58 -97.667 -118.667 -125 -182c-38 -86.667 -57.5 -184 -58.5 -292s34.5 -198.667 106.5 -272c30 -31.333 64.667 -54.666 104 -69.999s81 -16.666 125 -3.99902c36 10 69.667 27.5 101 52.5s53 56.5 65 94.5c12.667 41.333 14.167 86.666 4.5 135.999
s-33.5 87 -71.5 113c-74.667 50.667 -157.334 48.334 -248.001 -6.99902z" />
    <glyph glyph-name="seven" unicode="7" horiz-adv-x="809" 
d="M72 973c-38.667 -8 -61.9971 5.49805 -69.9971 40.498s7 56.5 45 64.5c105.333 22 213.166 29.833 323.499 23.5s219.166 -15.5 326.499 -27.5c26 -3.33301 44.167 -16.166 54.5 -38.499s4.83301 -40.833 -16.5 -55.5c-158.667 -110.667 -277 -252.167 -355 -424.5
s-133 -342.166 -165 -509.499c-6.66699 -32.667 -30.834 -47.667 -72.501 -45s-59.167 20.667 -52.5 54c31.333 162.667 82 327.5 152 494.5s173.333 311.5 310 433.5c-80 8 -160.5 12.333 -241.5 13s-160.5 -7 -238.5 -23z" />
    <glyph glyph-name="eight" unicode="8" horiz-adv-x="1011" 
d="M190 776c-17.333 31.333 -11 58.002 19 80.002c8 58.667 35.833 110 83.5 154s100.5 71.667 158.5 83c71.333 13.333 136 2.16602 194 -33.501s92 -91.5 102 -167.5c8 -62 -4.66699 -115.333 -38 -160c32 -16 58.333 -30.667 79 -44
c68 -48 117.833 -109.167 149.5 -183.5s30.167 -151.833 -4.5 -232.5c-44 -101.333 -119.333 -177.5 -226 -228.5s-212.667 -58.167 -318 -21.5c-84 29.333 -156 77.833 -216 145.5s-93.667 144.5 -101 230.5c-22 -2 -41.5 6.66699 -58.5 26s-18.5 41.666 -4.5 66.999
c58.667 100 134 174.667 226 224c-18.667 18 -33.667 38.333 -45 61zM385 638.002c-63.333 -16 -120.334 -46.666 -171.001 -91.999c1.33301 -9.33301 0.333008 -19.666 -3 -30.999c-32.667 -97.333 -13.667 -186.833 57 -268.5s155.334 -122.167 254.001 -121.5
c70 0 144 30.833 222 92.5s107.333 133.167 88 214.5c-14 57.333 -46.667 104.166 -98 140.499s-105 60.166 -161 71.499c-61.333 -18 -124 -20 -188 -6zM559.999 773.003c46 21.333 67.332 53.6709 63.999 97.0039c-3.33301 45.333 -20.666 75.166 -51.999 89.499
s-65 17.166 -101 8.49902s-68.5 -26.5 -97.5 -53.5s-42.833 -58.833 -41.5 -95.5c0.666992 -7.33301 0 -14.333 -2 -21c12 -12.667 29 -23.334 51 -32.001c58 11.333 117.667 13.666 179 6.99902z" />
    <glyph glyph-name="nine" unicode="9" horiz-adv-x="771" 
d="M480 672c21.333 12 40.8301 12.332 58.4971 0.999023s28.834 -26 33.501 -44c18 96.667 13.333 180.667 -14 252c-32.667 87.333 -90.667 131.666 -174 132.999c-43.333 0 -83.666 -10.167 -120.999 -30.5s-64.666 -50.5 -81.999 -90.5
c-40 -93.333 -18.667 -163.666 64 -210.999s161 -50.666 235 -9.99902zM560.997 576.999c-4.66699 -4.66699 -10.6641 -8.99902 -17.9971 -12.999c-62 -34 -129 -48.5 -201 -43.5s-136 29.5 -192 73.5c-93.333 72 -126.833 166 -100.5 282s91.166 195 194.499 237
c98.667 40 192.5 35 281.5 -15s144.5 -126.333 166.5 -229c20 -96.667 18.333 -197 -5 -301s-63.5 -198.833 -120.5 -284.5s-128.833 -155.334 -215.5 -209.001s-183.334 -78.5 -290.001 -74.5c-40 1.33301 -60 23 -60 65s20 62 60 60c96 -4 181.167 21.167 255.5 75.5
s133.5 123.166 177.5 206.499c27.333 52.667 49.666 109.334 66.999 170.001z" />
    <glyph glyph-name="colon" unicode=":" horiz-adv-x="341" 
d="M87 171c56 0 84 -27.667 84 -83s-28 -83 -84 -83s-84 27.667 -84 83s28 83 84 83zM87 778c56 0 84 -27.667 84 -83s-28 -83 -84 -83s-84 27.667 -84 83s28 83 84 83z" />
    <glyph glyph-name="semicolon" unicode=";" horiz-adv-x="341" 
d="M118 169c54.667 0 82 -28.668 82 -86.001c0 -33.333 -13.333 -57.666 -40 -72.999l-66 -55.5l-66 -57.5c-22.667 -20 -45.667 -18.5 -69 4.5s-23 44.833 1 65.5l43 37l43 37c-6.66699 14 -10 28 -10 42c0 57.333 27.333 86 82 86zM104 676.999c56 0 84 -28 84 -84
s-28 -84 -84 -84s-84 28 -84 84s28 84 84 84z" />
    <glyph glyph-name="less" unicode="&#x3c;" horiz-adv-x="619" 
d="M162 610c41.333 -34 83.998 -66.666 127.998 -97.999s90 -59.333 138 -84c34.667 -18.667 44.667 -47.5 30 -86.5s-39.667 -49.167 -75 -30.5c-63.333 32 -123.166 68.5 -179.499 109.5s-111.5 84.167 -165.5 129.5c-18 8.66699 -29.833 24.667 -35.5 48
s1.5 43.666 21.5 60.999c55.333 45.333 111.5 89 168.5 131s117.5 79.667 181.5 113c36 18 61.333 7.5 76 -31.5s4.33398 -67.5 -30.999 -85.5c-46.667 -24 -91.167 -51.167 -133.5 -81.5s-83.5 -61.833 -123.5 -94.5z" />
    <glyph glyph-name="equal" unicode="=" horiz-adv-x="670" 
d="M110 525c-40 -6.66699 -65.499 9.99902 -76.499 49.999s3.16699 63.667 42.5 71l128 20.5l128 21.5c39.333 6.66699 64.666 -10.166 75.999 -50.499s-2.66699 -63.5 -42 -69.5l-129 -22zM96.001 246.999c-36.667 -16 -65.333 -6 -86 30s-13 62 23 78
c151.333 65.333 304 106 458 122c40 4 60 -14.833 60 -56.5s-20 -64.5 -60 -68.5c-132 -12.667 -263.667 -47.667 -395 -105z" />
    <glyph glyph-name="greater" unicode="&#x3e;" horiz-adv-x="594" 
d="M302 610c-40.667 32.667 -82.333 64.166 -125 94.499s-87 57.5 -133 81.5c-34.667 18 -44.834 46.5 -30.501 85.5s39.5 49.5 75.5 31.5c64 -33.333 124.5 -71 181.5 -113l169.5 -131c20.667 -17.333 28 -37.666 22 -60.999s-18 -39.333 -36 -48
c-54.667 -45.333 -110.167 -88.5 -166.5 -129.5s-115.833 -77.5 -178.5 -109.5c-36 -18.667 -61.167 -8.5 -75.5 30.5s-4.16602 67.833 30.501 86.5c48 24.667 93.833 52.667 137.5 84s86.5 64 128.5 98z" />
    <glyph glyph-name="question" unicode="?" 
d="M75 978c-38 -15.333 -61.9971 -2.83203 -71.9971 37.501s3 68.166 39 83.499c83.333 32 174.5 56.333 273.5 73s192.5 8.33398 280.5 -24.999c52.667 -20.667 101 -53.167 145 -97.5s62.333 -98.166 55 -161.499c-9.33301 -73.333 -40 -135.5 -92 -186.5
s-109 -91.5 -171 -121.5c-36 -18 -72.833 -34.5 -110.5 -49.5s-73.5 -32.5 -107.5 -52.5c-20.667 -12 -38.834 -25.333 -54.501 -40s-17.5 -34.334 -5.5 -59.001c18 -36 9 -64.667 -27 -86s-63 -13.666 -81 23.001c-34 69.333 -33 128.166 3 176.499
s84.667 87.166 146 116.499c59.333 28 124.166 56.833 194.499 86.5s123.166 75.5 158.499 137.5c24 42 26.667 80.667 8 116s-50 61 -94 77c-80 28 -162.333 34.5 -247 19.5s-165 -37.5 -241 -67.5zM201.003 0.000976562c-40.667 0 -61 20.833 -61 62.5
s20.333 62.5 61 62.5c40 0 60 -20.833 60 -62.5s-20 -62.5 -60 -62.5z" />
    <glyph glyph-name="at" unicode="@" horiz-adv-x="1213" 
d="M683 754c39.333 6 64.5 -11 75.5 -51s-3.16699 -63 -42.5 -69c-56 -9.33301 -116.667 -29.666 -182 -60.999c-22.667 -10 -53 -24.833 -91 -44.5s-60 -43.167 -66 -70.5c-2.66699 -21.333 9.33301 -32.333 36 -33c32.667 -1.33301 68.334 9.66699 107.001 33
c37.333 22 72.5 46.833 105.5 74.5s64.833 56.834 95.5 87.501c19.333 19.333 41.666 23.5 66.999 12.5s38.333 -30.167 39 -57.5c0.666992 -26 9.66699 -54.833 27 -86.5s43.666 -37.5 78.999 -17.5c34 18.667 57.333 49.5 70 92.5s15 82.833 7 119.5
c-18 84.667 -68.833 139.667 -152.5 165s-162.167 36.333 -235.5 33c-88.667 -4 -174.167 -24.5 -256.5 -61.5s-146.5 -96.167 -192.5 -177.5c-40.667 -72 -54.5 -147.5 -41.5 -226.5s51.5 -145.167 115.5 -198.5c86 -72 185 -102.667 297 -92s214.333 38.334 307 83.001
c36 17.333 64.667 8 86 -28s14 -62.667 -22 -80c-108 -51.333 -225.667 -83.833 -353 -97.5s-243.666 14.833 -348.999 85.5c-80 54 -139.333 125.833 -178 215.5s-45.334 182.5 -20.001 278.5c24.667 93.333 71.667 172.666 141 237.999s148.666 114.166 237.999 146.499
s183 47.333 281 45s188.333 -24.166 271 -65.499c86.667 -44 145.667 -113.333 177 -208s22.333 -185.667 -27 -273c-23.333 -42 -56.666 -76.167 -99.999 -102.5s-89.666 -32.5 -138.999 -18.5c-58.667 16 -101.334 53 -128.001 111c-32 -28 -65.167 -53.833 -99.5 -77.5
s-70.5 -42.834 -108.5 -57.501c-50.667 -20 -104.5 -22.5 -161.5 -7.5s-91.833 53.5 -104.5 115.5c-11.333 52 2.83398 97.333 42.501 136s79.5 69 119.5 91s82.833 42.167 128.5 60.5s91.5 31.166 137.5 38.499z" />
    <glyph glyph-name="A" unicode="A" horiz-adv-x="1428" 
d="M109 222c-40 -10 -65.332 5.16602 -75.999 45.499s3.33301 65.5 42 75.5l72 17.5l72 17.5l135.5 435.5l136.5 435.5c6.66699 24 24.334 39 53.001 45s49 -4 61 -30c0.666992 -2.66699 1.66699 -5.33398 3 -8.00098s2.66602 -5 3.99902 -7l157 -348l158 -348l78.5 18.5
l79.5 19.5c38.667 10 63.667 -5.16699 75 -45.5s-2.66699 -65.166 -42 -74.499l-69.5 -17.5l-69.5 -17.5l290 -640c16 -36 6.16699 -64.667 -29.5 -86s-61.834 -13.666 -78.501 23.001c-2.66699 6.66699 -5 11.667 -7 15l-149 329l-149 329l-269.5 -66l-268.5 -66
l-97.5 -310.5l-96.5 -310.5c-12 -38 -38 -51.5 -78 -40.5s-54.333 35.5 -43 73.5l4 14c1.33301 4.66699 3 9 5 13l81 263l83 263c-12 -3.33301 -23.5 -6.33301 -34.5 -9zM804.001 521.999l-121.5 267.5l-120.5 268.5l-101 -323l-100 -322l221.5 54.5z" />
    <glyph glyph-name="B" unicode="B" horiz-adv-x="1428" 
d="M10 1211c-2 40 17.834 60.001 59.501 60.001s63.5 -20 65.5 -60c2.66699 -58 4.83398 -115.833 6.50098 -173.5s3.16699 -115.5 4.5 -173.5l14.5 8.5l15.5 9.5c75.333 45.333 154.666 86.833 237.999 124.5s168.333 65.834 255 84.501c66.667 14 138 15.167 214 3.5
s119 -61.5 129 -149.5c6 -60 -4.66699 -115.167 -32 -165.5s-62 -96.166 -104 -137.499c110.667 2 204.667 -15.667 282 -53c73.333 -36 126.166 -91.833 158.499 -167.5s30.833 -151.5 -4.5 -227.5c-33.333 -72.667 -86.166 -130.5 -158.499 -173.5
s-143.833 -78.167 -214.5 -105.5c-90 -34 -182.167 -61 -276.5 -81s-189.166 -35 -284.499 -45c-32 -3.33301 -65.167 -6.5 -99.5 -9.5s-68.5 -4.83301 -102.5 -5.5c2.66699 -42 6.16699 -84 10.5 -126s9.16602 -84 14.499 -126c4.66699 -40 -13.833 -59.833 -55.5 -59.5
s-64.834 20.166 -69.501 59.499c-6 43.333 -11 86.666 -15 129.999s-7.66699 86.333 -11 129c-31.333 4 -61.333 11 -90 21c-38 13.333 -51.5 40.166 -40.5 80.499s35.5 53.833 73.5 40.5c12.667 -4.66699 29 -9 49 -13c-12.667 216 -18.667 432.667 -18 650
s-4 434.333 -14 651zM167.001 -97.999c14.667 0 36.666 0.668945 65.999 2.00195c120.667 4 242 18.667 364 44c86 18 172.833 40.667 260.5 68s167.834 67 240.501 119c49.333 35.333 85.666 81.166 108.999 137.499s9.33301 110.166 -42 161.499
c-58.667 56.667 -134.667 84.5 -228 83.5s-177 -9.16699 -251 -24.5c-93.333 -62.667 -187.666 -114 -282.999 -154c-39.333 -17.333 -80 -33 -122 -47s-84.333 -22 -127 -24c2 -132 6.33301 -254 13 -366zM151 415.003c62 46 131.168 83.499 207.501 112.499
s151.166 52.5 224.499 70.5c16.667 4 34.667 8 54 12l28 20c36 26 72.5 55 109.5 87s66.5 68 88.5 108c16.667 30 25 59.667 25 89c0.666992 24.667 -3 41.334 -11 50.001c-12 9.33301 -26.667 15.333 -44 18c-33.333 2 -64 0.666992 -92 -4
c-71.333 -12 -152.333 -36.333 -243 -73c-58 -24 -119.667 -52.167 -185 -84.5s-120.333 -68.5 -165 -108.5c0 -50 0.333008 -99.667 1 -149z" />
    <glyph glyph-name="C" unicode="C" horiz-adv-x="1681" 
d="M1107 1165c40 -2 60 -23.8311 60 -65.498s-20 -61.5 -60 -59.5c-110.667 3.33301 -216.167 -20.334 -316.5 -71.001s-189.833 -112.334 -268.5 -185.001c-80 -74.667 -152.5 -158.5 -217.5 -251.5s-113.5 -192.167 -145.5 -297.5c-14 -46 -24.5 -93.333 -31.5 -142
s-5.16699 -96.334 5.5 -143.001c6.66699 -32 17.167 -65.167 31.5 -99.5s35.833 -61.166 64.5 -80.499c56 -38 121 -49 195 -33s140.667 37.333 200 64c86 40 169.333 86 250 138s158.667 107 234 165l166.5 137c55 47.333 107.5 97.333 157.5 150
c27.333 29.333 55.833 29.166 85.5 -0.500977s30.5 -59.167 2.5 -88.5c-66 -69.333 -136.167 -134.833 -210.5 -196.5s-149.833 -119.834 -226.5 -174.501c-90 -64 -185.5 -126 -286.5 -186s-206.167 -101 -315.5 -123c-75.333 -15.333 -149.333 -15.166 -222 0.500977
s-131.667 56.834 -177 123.501c-55.333 82 -82.333 173.667 -81 275s18 196.333 50 285c86 234.667 225 433.667 417 597c88.667 75.333 187.167 138.833 295.5 190.5s222.833 75.5 343.5 71.5z" />
    <glyph glyph-name="D" unicode="D" horiz-adv-x="1175" 
d="M-15 1161c-2 40 17.665 59.998 58.998 59.998s63 -20 65 -60c1.33301 -32 2.5 -64 3.5 -96s2.16699 -64 3.5 -96c68.667 36.667 140 61.667 214 75c98 16 197 14 297 -6s189.333 -62 268 -126c80.667 -67.333 139.334 -154 176.001 -260s42 -210 16 -312
c-30 -114.667 -86.167 -217.167 -168.5 -307.5s-172.5 -165.5 -270.5 -225.5c-74 -44 -152.667 -81.5 -236 -112.5s-168.333 -48.833 -255 -53.5c4.66699 -55.333 10.667 -111.666 18 -168.999c4.66699 -40 -13.833 -59.833 -55.5 -59.5s-64.834 20.166 -69.501 59.499
c-4 29.333 -7.5 58.333 -10.5 87s-5.83301 57.334 -8.5 86.001l-46 7c-39.333 8 -53.5 32.167 -42.5 72.5s35.833 56.5 74.5 48.5c0.666992 0 1.33398 -0.166992 2.00098 -0.5s1.33398 -0.5 2.00098 -0.5c-10.667 161.333 -16.834 323.166 -18.501 485.499
s-3.5 324.833 -5.5 487.5c-22.667 2.66699 -40.167 15.834 -52.5 39.501s-8.16602 45.834 12.501 66.501c6 6 12.167 11.667 18.5 17s12.5 11 18.5 17c-2 92 -5 184 -9 276zM146.998 -235.002c98.667 5.33301 195.668 29 291.001 71s180.666 93.667 255.999 155
c83.333 68 156 151 218 249s80.333 204.333 55 319c-22 95.333 -64.833 172.166 -128.5 230.499s-136.667 98.333 -219 120s-168 25.167 -257 10.5s-169.833 -46.667 -242.5 -96c2.66699 -177.333 4.66699 -354.166 6 -530.499s8.33301 -352.5 21 -528.5z" />
    <glyph glyph-name="E" unicode="E" horiz-adv-x="1542" 
d="M226 789c-37.333 -16 -61.333 -3.83301 -72 36.5s2.33301 68.5 39 84.5c131.333 54 264 103.5 398 148.5s273.667 67.5 419 67.5c40 0 60 -20.833 60 -62.5s-20 -62.5 -60 -62.5c-138.667 -0.666992 -272.5 -23.167 -401.5 -67.5s-256.5 -92.5 -382.5 -144.5zM236 158
c-30 -18.667 -55.665 -14.335 -76.998 12.998c12 -57.333 29.5 -112.833 52.5 -166.5s54.5 -101.5 94.5 -143.5c64.667 -68 138.834 -106.833 222.501 -116.5s169.167 -3.5 256.5 18.5c96.667 24.667 190.667 57.834 282 99.501s181.333 85.5 270 131.5
c35.333 18 63.5 9.16699 84.5 -26.5s13.833 -62.834 -21.5 -81.501l-276.5 -137c-103 -49.333 -207.833 -86.833 -314.5 -112.5s-210.834 -31.667 -312.501 -18s-191.5 61.834 -269.5 144.501c-128.667 136 -199.834 304 -213.501 504s-9.5 387 12.5 561
c5.33301 40 27.833 54.5 67.5 43.5s56.834 -36.167 51.501 -75.5c-11.333 -82 -18 -164.833 -20 -248.5s2 -166.5 12 -248.5l9 -65c5.33301 13.333 14.333 24 27 32c120.667 74.667 244 145.334 370 212.001s260.333 112 403 136c39.333 6 64.666 -11.167 75.999 -51.5
s-2.66699 -63.5 -42 -69.5c-138 -23.333 -267.333 -67 -388 -131s-239.334 -132 -356.001 -204z" />
    <glyph glyph-name="F" unicode="F" horiz-adv-x="1352" 
d="M165 580c-20 -60.667 -32.333 -124.666 -37 -191.999c-8 -118 1.16699 -237.167 27.5 -357.5s68.166 -229.5 125.499 -327.5c20 -34.667 12 -62.5 -24 -83.5s-64 -14.167 -84 20.5c-51.333 89.333 -93 194 -125 314c-26 100.667 -41.5 205.834 -46.5 315.501
s6.5 216.167 34.5 319.5c-16 16 -23 36 -21 60s17 38 45 42c2 0 4.16699 0.166992 6.5 0.5s4.5 0.5 6.5 0.5c16.667 37.333 32.334 67.666 47.001 90.999c109.333 181.333 262.833 302 460.5 362s394.834 90.333 591.501 91c32.667 1.33301 50.667 -20 54 -64
c0.666992 -20 -4.5 -35.5 -15.5 -46.5s-20.833 -16.5 -29.5 -16.5c-86 -0.666992 -172.333 -5.66699 -259 -15s-171.334 -27 -254.001 -53c-78 -24.667 -153.167 -58.834 -225.5 -102.501s-132.5 -99.5 -180.5 -167.5c-12 -15.333 -24.333 -34.666 -37 -57.999
c146 20 292.333 37.167 439 51.5s294 16.5 442 6.5c40 -3.33301 60 -25.833 60 -67.5s-20 -60.834 -60 -57.501c-158 10.667 -315.333 7.66699 -472 -9s-313 -35.667 -469 -57z" />
    <glyph glyph-name="G" unicode="G" horiz-adv-x="1491" 
d="M1254 862c14 -38 0.831055 -62.498 -39.502 -73.498s-67.5 2.5 -81.5 40.5c-26 70.667 -62.5 140.167 -109.5 208.5s-109.167 114.166 -186.5 137.499c-60.667 18 -121.834 20.667 -183.501 8s-119.5 -34 -173.5 -64c-88 -50 -176.833 -130.333 -266.5 -241
s-112.834 -220.667 -69.501 -330c11.333 -28.667 30.5 -54.667 57.5 -78s57.167 -37 90.5 -41c38.667 -6 78 -1.16699 118 14.5s77 32.5 111 50.5c42 22 83.833 45.333 125.5 70s84.5 48 128.5 70c36 18 74.833 34.667 116.5 50s83.5 21 125.5 17
c97.333 -11.333 162 -59.5 194 -144.5s56.333 -167.833 73 -248.5c20.667 -103.333 37.334 -207.5 50.001 -312.5s34 -208.167 64 -309.5c10.667 -38 -4.16602 -62.5 -44.499 -73.5s-65.833 2.5 -76.5 40.5c-28 97.333 -48.167 196.166 -60.5 296.499
s-28.166 199.833 -47.499 298.5l-29 134c-10 46 -25 89 -45 129c-26.667 52 -67.334 73.333 -122.001 64c-70 -13.333 -145.5 -44.833 -226.5 -94.5s-162.333 -92.5 -244 -128.5s-161 -52.5 -238 -49.5s-145.833 50.833 -206.5 143.5
c-45.333 69.333 -64.166 142.166 -56.499 218.499s31.334 149.666 71.001 219.999s89.5 134.833 149.5 193.5s119 105 177 139c69.333 40.667 145.333 70.334 228 89.001s163.667 15.334 243 -9.99902c100 -32.667 180.5 -89.667 241.5 -171s108.5 -169 142.5 -263z" />
    <glyph glyph-name="H" unicode="H" horiz-adv-x="1694" 
d="M1 1236c-4.66699 40 13.666 59.8389 54.999 59.5059s64.666 -20.166 69.999 -59.499c16 -128.667 28 -257.834 36 -387.501s17 -259.167 27 -388.5c4 -66 8.33301 -132.333 13 -199s10.334 -133.334 17.001 -200.001c19.333 82 44.166 162.833 74.499 242.5
s70.5 153.167 120.5 220.5c52 69.333 121 125.5 207 168.5s173 46.5 261 10.5c92.667 -38 169.667 -101.833 231 -191.5s115 -176.167 161 -259.5c44.667 -82.667 86.5 -168.334 125.5 -257.001s86.5 -171 142.5 -247c23.333 -32.667 16.833 -59.5 -19.5 -80.5
s-65.833 -15.5 -88.5 16.5c-23.333 32 -46 69.667 -68 113l-144.5 286.5c-46.333 96.333 -99.166 189.166 -158.499 278.499c-44 66 -99.333 128.833 -166 188.5s-144 68.5 -232 26.5c-82.667 -40 -146.334 -102 -191.001 -186s-79 -167 -103 -249
c-23.333 -76.667 -42.166 -154.334 -56.499 -233.001s-26.166 -158 -35.499 -238c-4 -32 -23.5 -52 -58.5 -60s-56.5 6.33301 -64.5 43c-30 129.333 -50.333 260.5 -61 393.5s-20.667 265.5 -30 397.5c-10 131.333 -19 263.166 -27 395.499s-20.333 264.166 -37 395.499z
" />
    <glyph glyph-name="I" unicode="I" horiz-adv-x="353" 
d="M0 1358c-1.33301 40 18.668 60.001 60.001 60.001s63 -20 65 -60c13.333 -282 18.833 -564 16.5 -846s14.167 -563 49.5 -843c4.66699 -40 -13.833 -59.833 -55.5 -59.5s-64.834 20.166 -69.501 59.499c-34.667 280 -51 561 -49 843s-3.66699 564 -17 846z" />
    <glyph glyph-name="J" unicode="J" horiz-adv-x="1441" 
d="M17 -208c-26 30 -24.668 59.668 3.99902 89.001s56.667 29 84 -1c64 -70 140.833 -114 230.5 -132s179.167 -17 268.5 3c72 16.667 146.833 43.334 224.5 80.001s138.834 86 183.501 148c54 76.667 93 163 117 259s41 190.333 51 283c10 90 15.833 181.667 17.5 275
s-3.83301 185.666 -16.5 276.999c-6 39.333 11.167 64.666 51.5 75.999s63.5 -3 69.5 -43c15.333 -108 21.833 -216.5 19.5 -325.5s-10.5 -217.167 -24.5 -324.5c-14 -98 -35 -199.5 -63 -304.5s-75.667 -195.5 -143 -271.5c-63.333 -71.333 -141.833 -130.333 -235.5 -177
s-191.167 -76 -292.5 -88s-200.5 -4.5 -297.5 22.5s-179.833 78.5 -248.5 154.5z" />
    <glyph glyph-name="K" unicode="K" horiz-adv-x="1377" 
d="M0 1358c-1.33301 40 18.668 60.002 60.001 60.002s63 -20 65 -60c6 -132.667 9.66699 -265.334 11 -398.001s3 -265 5 -397c83.333 50 165.5 102.5 246.5 157.5l243.5 165.5l238 160.5c80 53.667 158 109.5 234 167.5c32 24 58.5 18 79.5 -18s15.5 -66 -16.5 -90
c-78 -60 -157.833 -117.333 -239.5 -172l-243.5 -164l-193 -131l-194 -128c164.667 -71.333 314.5 -169.333 449.5 -294s288.5 -216.667 460.5 -276c38 -12.667 51.5 -39.167 40.5 -79.5s-35.5 -53.833 -73.5 -40.5c-98 34 -189 79.333 -273 136s-166.667 116 -248 178
c-78 60 -158.333 117.833 -241 173.5s-172 97.167 -268 124.5c2 -128 6.5 -255.5 13.5 -382.5s18.5 -254.167 34.5 -381.5c4.66699 -40 -13.833 -59.833 -55.5 -59.5s-64.834 20.166 -69.501 59.499c-34.667 280 -51 561 -49 843s-3.66699 564 -17 846z" />
    <glyph glyph-name="L" unicode="L" horiz-adv-x="1567" 
d="M22 957c4 39.333 26.833 59.167 68.5 59.5s60.5 -19.5 56.5 -59.5c-11.333 -92 -18.5 -184.333 -21.5 -277s-0.166992 -185 8.5 -277c8 -86 22.667 -173.333 44 -262s57.666 -169 108.999 -241c64 -91.333 141.333 -144.166 232 -158.499s184.834 -7.5 282.501 20.5
s193.5 68.167 287.5 120.5l247 140.5c34.667 20 62.5 12.333 83.5 -23s14.167 -63.666 -20.5 -84.999c-84.667 -50 -180.167 -102.833 -286.5 -158.5s-214 -96.667 -323 -123s-214.833 -29.5 -317.5 -9.5s-193 80.667 -271 182c-60 78.667 -103.667 166.167 -131 262.5
s-46 192.833 -56 289.5c-10 99.333 -14.167 199.166 -12.5 299.499s8.5 200.166 20.5 299.499z" />
    <glyph glyph-name="M" unicode="M" horiz-adv-x="1833" 
d="M125 -330c0 -40 -20.834 -60.002 -62.501 -60.002s-62.5 20 -62.5 60c0 152 6.33301 305 19 459s35 305.667 67 455c15.333 72.667 36.333 150.334 63 233.001s71.667 148.334 135 197.001c62.667 48 122.834 53.667 180.501 17s102.167 -83.334 133.5 -140.001
c48 -88 85.5 -181.333 112.5 -280s50.833 -196.334 71.5 -293.001c0.666992 -6.66699 1.66699 -13.167 3 -19.5l4 -18.5l12 65c20 102.667 43.5 205.5 70.5 308.5s62.5 202.5 106.5 298.5c24.667 56 58.5 115.5 101.5 178.5s98.5 99.5 166.5 109.5
c80 11.333 145 -13 195 -73s87 -122.667 111 -188c38 -105.333 65 -214.166 81 -326.499s29.333 -223.5 40 -333.5c9.33301 -102.667 16.833 -205.167 22.5 -307.5s12.167 -205.166 19.5 -308.499c2 -40 -17.833 -60 -59.5 -60s-63.834 20 -66.501 60
c-12 182.667 -23.167 366.334 -33.5 551.001s-37.5 366.667 -81.5 546c-10 41.333 -21.667 83.166 -35 125.499s-31.666 81.5 -54.999 117.5c-16.667 25.333 -36.667 45.333 -60 60c-19.333 10.667 -36.333 15.667 -51 15l-8.5 -2c-5.66699 -1.33301 -11.834 -3 -18.501 -5
c3.33301 1.33301 0.833008 -0.333984 -7.5 -5.00098s-13.5 -8 -15.5 -10c-17.333 -12.667 -33 -28.667 -47 -48c-40.667 -54.667 -76.667 -122 -108 -202c-36 -92 -66.167 -186 -90.5 -282s-45.166 -192 -62.499 -288c-14 -78 -26.333 -156.167 -37 -234.5
s-16 -157.166 -16 -236.499c0 -40.667 -19.833 -60.667 -59.5 -60s-61.5 20.667 -65.5 60c-22 218 -61 437 -117 657c-12.667 48.667 -26.334 97.334 -41.001 146.001s-31.667 96.334 -51 143.001c-12 26.667 -27 57 -45 91s-37.333 58 -58 72
c-10.667 7.33301 -20 12 -28 14c-4 0.666992 -8.33301 0 -13 -2c-16 -4.66699 -30.667 -14 -44 -28c-20.667 -22.667 -38.167 -50 -52.5 -82s-26.5 -63.333 -36.5 -94c-30 -94 -52.5 -189.833 -67.5 -287.5s-26.5 -194.834 -34.5 -291.501
c-7.33301 -78.667 -13.166 -157.334 -17.499 -236.001s-6.5 -157.667 -6.5 -237z" />
    <glyph glyph-name="N" unicode="N" horiz-adv-x="1719" 
d="M0 1146c-3.33301 40 15.833 59.9971 57.5 59.9971s64.5 -20 68.5 -60l49.5 -492c17 -164 36.5 -327.667 58.5 -491c10 62.667 20.333 118.334 31 167.001c19.333 93.333 44.666 187.333 75.999 282s77 180 137 256c50 62.667 113.833 108 191.5 136
s154.5 20.667 230.5 -22c88.667 -51.333 162.334 -124.166 221.001 -218.499s110 -185.5 154 -273.5c47.333 -94 91.333 -189.667 132 -287s85 -192.333 133 -285c18 -36 9 -64.5 -27 -85.5s-63 -13.5 -81 22.5c-39.333 76 -75.833 153.5 -109.5 232.5l-104.5 235.5
l-78.5 158.5c-27 53 -56.167 104.5 -87.5 154.5c-25.333 38.667 -52.666 77.834 -81.999 117.501s-63 73.167 -101 100.5c-66.667 45.333 -129.667 51.833 -189 19.5s-107 -78.833 -143 -139.5c-50 -84 -87.667 -174.5 -113 -271.5s-46 -193.167 -62 -288.5
c-14 -84 -25.167 -167.667 -33.5 -251s-15.5 -167.333 -21.5 -252c-2.66699 -32.667 -22.334 -52.667 -59.001 -60s-58 7 -64 43c-42 246.667 -77 494.5 -105 743.5s-54.333 498.5 -79 748.5z" />
    <glyph glyph-name="O" unicode="O" horiz-adv-x="1415" 
d="M88 -211c-27.333 30 -26.3301 59.8379 3.00293 89.5049s58 29.5 86 -0.5c67.333 -73.333 143.833 -117.833 229.5 -133.5s171.167 -10.834 256.5 14.499s165.5 66.833 240.5 124.5s135.5 122.834 181.5 195.501c25.333 41.333 46.666 85.166 63.999 131.499
s26.333 94.5 27 144.5c0 54 -8.33301 108.167 -25 162.5s-37.667 105.166 -63 152.499c-40 72.667 -92.333 134.167 -157 184.5s-140.334 72.5 -227.001 66.5c-82 -6 -158.5 -33.333 -229.5 -82s-129.5 -105.667 -175.5 -171c-65.333 -92 -111.666 -191.333 -138.999 -298
s-38.666 -215.334 -33.999 -326.001c2 -40 -17.833 -60 -59.5 -60s-63.5 20 -65.5 60c-4.66699 140.667 14.5 281.167 57.5 421.5s114.5 262.5 214.5 366.5c75.333 77.333 167.166 138 275.499 182s217.166 47.333 326.499 10c95.333 -33.333 173.666 -88.5 234.999 -165.5
s108.666 -161.5 141.999 -253.5c18.667 -54 32.334 -107.667 41.001 -161s9 -108 1 -164c-15.333 -101.333 -53.666 -196 -114.999 -284c-59.333 -84.667 -134.333 -159.834 -225 -225.501s-186.667 -111.834 -288 -138.501s-202.833 -29.167 -304.5 -7.5
s-192.834 76.5 -273.501 164.5z" />
    <glyph glyph-name="P" unicode="P" horiz-adv-x="1327" 
d="M289 -296c18 -36 8.99707 -64.502 -27.0029 -85.502s-63 -13.5 -81 22.5c-53.333 106 -93.666 220 -120.999 342s-45.666 241.333 -54.999 358c-10 140 2.66699 286.167 38 438.5s123.333 263.833 264 334.5c85.333 42.667 178.833 66.334 280.5 71.001
s198.5 -4.66602 290.5 -27.999c76 -20 146.833 -57.667 212.5 -113s93.167 -128 82.5 -218c-11.333 -88 -46.833 -165.833 -106.5 -233.5s-126.5 -122.167 -200.5 -163.5c-105.333 -59.333 -216.833 -97 -334.5 -113s-235.167 -13.333 -352.5 8
c-40 6.66699 -54.5 30.167 -43.5 70.5s36.5 57.166 76.5 50.499c90.667 -16.667 183.667 -19.834 279 -9.50098s185 36.5 269 78.5c54.667 27.333 109 63 163 107s91.333 97 112 159c23.333 70 16 125.167 -22 165.5s-89.167 69.5 -153.5 87.5s-132.833 26.833 -205.5 26.5
s-131.334 -5.83301 -176.001 -16.5c-143.333 -34.667 -242.666 -116.667 -297.999 -246c-28 -65.333 -44.833 -134.166 -50.5 -206.499s-6.16699 -143.166 -1.5 -212.499c8 -134 32.667 -274.667 74 -422c14 -53.333 31 -107.666 51 -162.999
c2.66699 -8.66699 10.334 -29.334 23.001 -62.001v0v0c2 -3.33301 3.66699 -6.66602 5 -9.99902c1.33301 -2.66699 2.5 -5.33398 3.5 -8.00098s2.5 -5.66699 4.5 -9z" />
    <glyph glyph-name="Q" unicode="Q" horiz-adv-x="1428" 
d="M88 -172c-27.333 30 -26.3301 59.6641 3.00293 88.9971s58 29 86 -1c104.667 -114 228.334 -161 371.001 -141s269 75 379 165c-31.333 40 -64 78.5 -98 115.5s-72 70.5 -114 100.5c-32.667 22.667 -38.667 52.167 -18 88.5s47.667 42.833 81 19.5
c46.667 -34 89 -71.667 127 -113s74.333 -84 109 -128c26 30 49.667 61.667 71 95c25.333 40.667 46.666 84.334 63.999 131.001s26.333 95 27 145c0 54 -8.33301 108 -25 162s-37.667 104.667 -63 152c-40 72.667 -92.333 134.167 -157 184.5s-140.334 72.5 -227.001 66.5
c-82 -6 -158.5 -33.333 -229.5 -82s-129.5 -105.667 -175.5 -171c-65.333 -92 -111.666 -191.333 -138.999 -298s-38.666 -215.334 -33.999 -326.001c2 -40.667 -17.833 -61 -59.5 -61s-63.5 20.333 -65.5 61c-4.66699 141.333 14.5 282 57.5 422s114.5 262 214.5 366
c75.333 78 167.166 138.833 275.499 182.5s217.166 46.834 326.499 9.50098c95.333 -32.667 173.666 -87.667 234.999 -165s108.666 -162 141.999 -254c18.667 -53.333 32.334 -106.833 41.001 -160.5s9 -108.5 1 -164.5c-14.667 -99.333 -53 -194.333 -115 -285
c-29.333 -40 -59 -76 -89 -108c28 -36.667 57 -72.834 87 -108.501s62.333 -69.5 97 -101.5c30 -27.333 30.167 -55.666 0.5 -84.999s-59.167 -30.666 -88.5 -3.99902c-36 32 -69 66.667 -99 104l-87 113c-134 -108 -287.333 -172.667 -460 -194
s-323.334 38.334 -452.001 179.001z" />
    <glyph glyph-name="R" unicode="R" horiz-adv-x="1580" 
d="M2 932c-8 38.667 7.99414 63.6689 47.9941 75.002s64 -2.66699 72 -42c16.667 -80.667 30.334 -157.334 41.001 -230.001c4 12.667 9.33301 25.667 16 39c46 110 115.667 209 209 297s202 139 326 153c56 6 111.333 0.166992 166 -17.5s99.667 -49.834 135 -96.501
c34 -47.333 52.667 -100.5 56 -159.5s-8.66699 -113.833 -36 -164.5c-30.667 -56 -69.5 -106.667 -116.5 -152s-96.5 -86 -148.5 -122l-54 -36c41.333 -8 81.833 -18.5 121.5 -31.5s77.834 -26.5 114.501 -40.5c92.667 -36 183.334 -77 272.001 -123
s176.334 -94 263.001 -144c34.667 -20.667 41.5 -48.834 20.5 -84.501s-48.833 -43.5 -83.5 -23.5l-235 130.5c-79.333 42.333 -160.333 80.166 -243 113.499c-64 25.333 -137.5 50.333 -220.5 75s-160.5 27.667 -232.5 9c-24 -11.333 -49 -21.333 -75 -30
c-34 -12.667 -58.167 -1 -72.5 35s-6.16602 62.333 24.501 79c26.667 14 53.334 24.667 80.001 32c100 43.333 194.667 99 284 167c26.667 20.667 52.834 42.667 78.501 66s49.167 48.666 70.5 75.999c14 17.333 28.167 37.833 42.5 61.5s21.5 47.167 21.5 70.5
c0 56.667 -17 102.834 -51 138.501s-80 52.5 -138 50.5c-62.667 -2.66699 -123.167 -20.167 -181.5 -52.5s-108.5 -70.5 -150.5 -114.5c-78.667 -83.333 -131.834 -180.166 -159.501 -290.499s-42.5 -220.5 -44.5 -330.5v-44.5v-44.5l23 -279l23 -278
c3.33301 -40 -15.834 -60 -57.501 -60s-64.167 20 -67.5 60c-6.66699 71.333 -14 142.333 -22 213s-14 141 -18 211c-1.33301 14.667 -2.66602 37.334 -3.99902 68.001l-11.5 116l-11.5 116l-31 270c-10.667 90 -25 179.667 -43 269z" />
    <glyph glyph-name="S" unicode="S" horiz-adv-x="1137" 
d="M772 1115c40 0 60.001 -21.002 60.001 -63.002s-20 -63 -60 -63c-68 -0.666992 -135.667 -14.5 -203 -41.5s-129 -57.5 -185 -91.5c-51.333 -32 -106.5 -73.667 -165.5 -125s-90.5 -110 -94.5 -176c-4.66699 -46 5.33301 -87 30 -123
c11.333 -18 19.666 -29.333 24.999 -34c-8.66699 7.33301 -10.667 9.16602 -6 5.49902s8.66699 -6.16699 12 -7.5c8 -4 9.16699 -4.83301 3.5 -2.5s-5.5 2.5 0.5 0.5c2 -0.666992 4.16699 -1.5 6.5 -2.5s4.83301 -1.5 7.5 -1.5c6.66699 -2.66699 16.667 -6 30 -10
c12.667 -4 25.334 -7.66699 38.001 -11l39 -10l206.5 -50.5c69.667 -16.333 137.5 -37.166 203.5 -62.499c56 -21.333 114.167 -49.666 174.5 -84.999s99.5 -84.666 117.5 -147.999c22 -80.667 4.66699 -154.667 -52 -222s-113 -123 -169 -167
c-32 -24.667 -62.833 -22.334 -92.5 6.99902s-28.5 56.333 3.5 81c28.667 22.667 57.667 47 87 73s54 54.667 74 86c14.667 24.667 24 44.667 28 60c2.66699 10.667 4 17.334 4 20.001v13c-6 27.333 -23.667 54 -53 80c-31.333 24 -70 46 -116 66
c-64.667 28 -131.334 50.5 -200.001 67.5l-205 50.5c-56 13.333 -109.5 28.166 -160.5 44.499s-91.167 51.833 -120.5 106.5c-52 97.333 -56 190.833 -12 280.5s104.667 165.5 182 227.5c76.667 60.667 164.5 113.334 263.5 158.001s198.5 68 298.5 70z" />
    <glyph glyph-name="T" unicode="T" horiz-adv-x="1302" 
d="M96 866c-36.667 -18 -65.5 -8.99902 -86.5 27.001s-13.5 63 22.5 81l264.5 127.5c90.333 45 182.5 84.833 276.5 119.5l-10.5 222.5c-3.66699 74.333 -7.83398 148.5 -12.501 222.5v0c-2.66699 40 16.833 60 58.5 60s63.834 -20 66.501 -60
c8.66699 -136 15.667 -270.667 21 -404c149.333 43.333 289.333 57.333 420 42c39.333 -5.33301 59.166 -28.833 59.499 -70.5s-19.5 -60.167 -59.5 -55.5c-70.667 8.66699 -140.667 8.33398 -210 -0.999023s-137.666 -24 -204.999 -44
c8.66699 -244.667 18 -489.334 28 -734.001s31 -488 63 -730c5.33301 -40 -13 -59.833 -55 -59.5s-65.333 20.166 -70 59.499c-31.333 234.667 -52 470.667 -62 708s-19 475 -27 713c-84 -32.667 -166.333 -69.167 -247 -109.5z" />
    <glyph glyph-name="U" unicode="U" horiz-adv-x="1656" 
d="M1547 -331c4 -40 -14.8369 -59.834 -56.5039 -59.501s-64.5 20.166 -68.5 59.499l-51 491.5c-17.333 163.667 -36.666 327.5 -57.999 491.5c-9.33301 -56 -19.333 -112 -30 -168c-20 -93.333 -45.667 -187.166 -77 -281.499s-76.666 -179.166 -135.999 -254.499
c-50 -63.333 -114 -109 -192 -137s-154.667 -20.667 -230 22c-89.333 51.333 -163.333 123.833 -222 217.5s-110 184.834 -154 273.501c-47.333 94 -91.166 189.5 -131.499 286.5s-84.5 192.5 -132.5 286.5c-18 36 -9.16699 64.5 26.5 85.5s62.834 13.5 81.501 -22.5
c38.667 -76 74.667 -153.667 108 -233s68.666 -158 105.999 -236c24.667 -53.333 50.5 -106.166 77.5 -158.499s56.5 -103.5 88.5 -153.5c24 -39.333 50.833 -78.833 80.5 -118.5s63.834 -72.5 102.501 -98.5c66 -46 128.667 -52.833 188 -20.5s107.333 78.5 144 138.5
c50 84 87.5 174.5 112.5 271.5s45.5 193.167 61.5 288.5c14 84 25.167 168 33.5 252s15.5 168 21.5 252c2 33.333 21.5 53.666 58.5 60.999s58.5 -7.33398 64.5 -44.001c41.333 -248 76 -496.5 104 -745.5s54.667 -497.833 80 -746.5z" />
    <glyph glyph-name="V" unicode="V" horiz-adv-x="1390" 
d="M1155 954c2.66699 40 24.8311 60.0029 66.498 60.0029s61.167 -20 58.5 -60c-7.33301 -100 -21.666 -199.5 -42.999 -298.5s-45 -196.5 -71 -292.5c-27.333 -99.333 -57.666 -198.833 -90.999 -298.5s-76.333 -193.834 -129 -282.501
c-38 -63.333 -85.5 -113.5 -142.5 -150.5s-122.5 -33.167 -196.5 11.5c-86 52.667 -156.167 126 -210.5 220s-101.5 184.667 -141.5 272c-44.667 94 -86 189.667 -124 287s-79.333 193 -124 287c-16.667 36 -7.33398 64.667 27.999 86s62 14 80 -22
c28 -58.667 53.833 -118 77.5 -178l73.5 -178l134 -306c47.333 -104 107.333 -197 180 -279c32.667 -37.333 63 -64 91 -80c12.667 -8.66699 25.334 -14.334 38.001 -17.001s19 -4.33398 19 -5.00098c16.667 4.66699 33 15 49 31c18.667 20.667 37.334 46 56.001 76
c52 86.667 94.5 179.167 127.5 277.5s62.5 196.5 88.5 294.5c23.333 88.667 45.166 178.667 65.499 270s33.833 183 40.5 275z" />
    <glyph glyph-name="W" unicode="W" horiz-adv-x="1833" 
d="M0 989c0 40 20.8301 60.0049 62.4971 60.0049s62.5 -20 62.5 -60c0 -40.667 0.833008 -81.334 2.5 -122.001s3.83398 -81 6.50098 -121c6 -98 15.333 -196.167 28 -294.5s32.667 -194.5 60 -288.5c10 -38 22.333 -75.667 37 -113s34 -71.666 58 -102.999
c16.667 -22 33.334 -36 50.001 -42c19.333 -6.66699 34.666 -7.33398 45.999 -2.00098c28.667 16 52.834 39.5 72.501 70.5s36.5 61.833 50.5 92.5c21.333 46 39.833 93.167 55.5 141.5s30.167 97.166 43.5 146.499c48.667 178.667 82.667 351 102 517
c4 38.667 25.833 58.5 65.5 59.5s59.5 -18.833 59.5 -59.5c0 -79.333 6.5 -158.333 19.5 -237s28.5 -156 46.5 -232c20.667 -91.333 45.167 -182.833 73.5 -274.5s67.5 -177.5 117.5 -257.5c16 -26 34.167 -51.333 54.5 -76s44.5 -43 72.5 -55
c15.333 -7.33301 33 -8.33301 53 -3c26.667 8 49 20.667 67 38c28 30 49.833 65 65.5 105s29.167 79 40.5 117c14.667 54 27.167 109 37.5 165s19.5 112.333 27.5 169c12.667 104 22.5 208.5 29.5 313.5s14.5 210.167 22.5 315.5c3.33301 40 25.833 60 67.5 60
s61.167 -20 58.5 -60c-12.667 -158 -24.5 -317 -35.5 -477s-35.5 -317 -73.5 -471c-19.333 -74 -48.833 -154.333 -88.5 -241s-103.5 -138.667 -191.5 -156c-77.333 -14.667 -143.333 3 -198 53s-98.667 105 -132 165c-47.333 84.667 -86 173.667 -116 267s-55 187 -75 281
l-8 36c-2.66699 12 -5 24 -7 36c-12.667 -52 -25 -100 -37 -144c-23.333 -84 -52.333 -173.333 -87 -268s-88 -170 -160 -226c-65.333 -50 -129.5 -56.167 -192.5 -18.5s-109.833 86.5 -140.5 146.5c-44 85.333 -75.667 176.166 -95 272.499
s-34.666 192.166 -45.999 287.499c-21.333 171.333 -32 333.666 -32 486.999z" />
    <glyph glyph-name="X" unicode="X" horiz-adv-x="1706" 
d="M1123 1035c22.667 32.667 50.666 36.501 83.999 11.501s38.666 -53.833 15.999 -86.5l-239 -323l-243 -318l349 -253.5c118 -82.333 239 -160.5 363 -234.5c34.667 -20 39.334 -46.667 14.001 -80s-55 -40 -89 -20c-124.667 74 -245.834 152.167 -363.501 234.5
l-349.5 253.5l-239.5 -327c-77.667 -110 -151.167 -223.333 -220.5 -340c-21.333 -34 -48.666 -38.333 -81.999 -13s-39.666 55 -18.999 89c70 116 143.833 229 221.5 339l239.5 327l-299 225.5l-301 220.5c-32.667 22.667 -36.5 50.667 -11.5 84s53.5 38.666 85.5 15.999
l302.5 -220.5l299.5 -225.5l243 318z" />
    <glyph glyph-name="Y" unicode="Y" horiz-adv-x="1238" 
d="M880 -342c-3.33301 -40 -25.332 -55.668 -65.999 -47.001s-59.334 33 -56.001 73c12 155.333 30.833 309.5 56.5 462.5l78.5 460.5c-18 -25.333 -32.667 -45.333 -44 -60c-54 -70 -118.667 -131.167 -194 -183.5s-159.666 -73.166 -252.999 -62.499
c-84 9.33301 -149.667 54.333 -197 135s-83 156 -107 226c-25.333 68.667 -48.333 142.5 -69 221.5s-30.334 155.833 -29.001 230.5c1.33301 40 22.833 61.167 64.5 63.5s61.834 -16.5 60.501 -56.5c-2 -63.333 5.66699 -128.333 23 -195s36 -129.334 56 -188.001
c12.667 -38.667 27 -77 43 -115s35.667 -74 59 -108c13.333 -20 29.666 -40.167 48.999 -60.5s42 -30.5 68 -30.5c78 -3.33301 146.333 20.5 205 71.5s109 106.5 151 166.5c74 106.667 133.333 223.334 178 350.001c12.667 37.333 37.5 52.333 74.5 45s52.833 -31 47.5 -71
c-30 -222 -66.333 -443.167 -109 -663.5s-72.667 -441.833 -90 -664.5z" />
    <glyph glyph-name="Z" unicode="Z" horiz-adv-x="1491" 
d="M78 825c-39.333 -10.667 -64.332 4.16699 -74.999 44.5s3 65.833 41 76.5c84 22 169.167 39.833 255.5 53.5s172.5 25.5 258.5 35.5c84.667 10 169.834 18.5 255.501 25.5s171.5 10.5 257.5 10.5c27.333 0 46.166 -13 56.499 -39s6.5 -48.667 -11.5 -68
c-78 -80 -151.167 -165 -219.5 -255l-201.5 -269l-247 -337.5l-242 -341.5c88 14 177 23.833 267 29.5s179.333 9.83398 268 12.501c116 4 234 5.66699 354 5s237.667 -12.667 353 -36c39.333 -8 53.333 -32.167 42 -72.5s-36.333 -56.5 -75 -48.5
c-110 22 -222.333 33 -337 33s-227 -2 -337 -6s-220.667 -10 -332 -18s-220.333 -24.333 -327 -49c-24.667 -6 -46.5 1.83301 -65.5 23.5s-20.5 44.5 -4.5 68.5l290 410l296 406l160 213.5c54 71.667 110 141.5 168 209.5c-62 -2.66699 -123.5 -6.83398 -184.5 -12.501
s-122.167 -12.167 -183.5 -19.5c-80.667 -10 -161.334 -21.333 -242.001 -34s-160 -29.667 -238 -51z" />
    <glyph glyph-name="backslash" unicode="\" horiz-adv-x="1024" 
d="M819 29c-111.333 169.333 -237 327.832 -377 475.499l-423 436.5c-28 28 -27.5 56.667 1.5 86s57.833 30 86.5 2l434 -448c143.333 -152 272.333 -315 387 -489c22 -34 14.833 -61.167 -21.5 -81.5s-65.5 -14.166 -87.5 18.501z" />
    <glyph glyph-name="underscore" unicode="_" horiz-adv-x="998" 
d="M108 0c-69.333 -2.66699 -104.999 16.667 -106.999 58s31 64 99 68c123.333 6 246 10.167 368 12.5s245 -0.5 369 -8.5c68.667 -5.33301 94.667 -28 78 -68s-59 -58 -127 -54c-113.333 8 -226.833 10.167 -340.5 6.5s-226.834 -8.5 -339.501 -14.5z" />
    <glyph glyph-name="a" unicode="a" horiz-adv-x="821" 
d="M503 784c30.667 8.66699 52.999 -0.99707 66.999 -28.9971s13.667 -52.333 -1 -73c19.333 -12.667 30 -29.667 32 -51c7.33301 -92.667 17 -184.834 29 -276.501s26 -182.834 42 -273.501c6.66699 -40.667 -10.166 -66.5 -50.499 -77.5s-63.833 3.5 -70.5 43.5
c-18.667 110 -34.667 219.333 -48 328c-24 -45.333 -51.667 -90.333 -83 -135s-76.833 -96 -136.5 -154s-120.5 -67 -182.5 -27c-74 48 -107.5 112.167 -100.5 192.5s32.833 152.166 77.5 215.499c52 72 114.333 136.833 187 194.5s152 98.5 238 122.5zM476.999 639.003
c-115.333 -48.667 -209.668 -124 -283.001 -226c-16.667 -23.333 -33 -49 -49 -77s-23.667 -57 -23 -87c0 -24.667 5.33301 -43 16 -55c14 -14 22.333 -21.667 25 -23c1.33301 -1.33301 2.33301 -1.66602 3 -0.999023c13.333 0.666992 28.5 8 45.5 22s31.833 28 44.5 42
c35.333 39.333 70 87.666 104 144.999c22.667 38 45.834 79.333 69.501 124s39.5 90 47.5 136z" />
    <glyph glyph-name="b" unicode="b" horiz-adv-x="922" 
d="M20 1443c4 39.333 26.832 59.168 68.499 59.501s60.834 -19.5 57.501 -59.5c-14 -144 -17.833 -287.833 -11.5 -431.5s15.166 -287.5 26.499 -431.5c26.667 68.667 59.667 130.667 99 186c22.667 32 49.667 63 81 93s67.666 49 108.999 57
c46 8.66699 90.167 4.66699 132.5 -12s80.833 -40 115.5 -70c74.667 -66.667 101.334 -133.834 80.001 -201.501s-64.666 -131.334 -129.999 -191.001s-139.5 -112.667 -222.5 -159s-147.833 -81.166 -194.5 -104.499c-12.667 -6.66699 -26 -8.66699 -40 -6
c-1.33301 -18.667 -2 -32.667 -2 -42c0 -40.667 -20.5 -60.834 -61.5 -60.501s-62.167 20.5 -63.5 60.5c-8 218.667 -22.333 437.334 -43 656.001s-21 437.667 -1 657zM209.999 307.002c52.667 26.667 105 54.667 157 84s101.333 63 148 101
c24 19.333 49.833 41.666 77.5 66.999s46.167 54 55.5 86c13.333 46.667 -11.667 88.334 -75 125.001c-59.333 33.333 -109.333 31.333 -150 -6c-28.667 -26 -53 -55.5 -73 -88.5s-37.667 -66.5 -53 -100.5c-40.667 -94 -69.667 -183.333 -87 -268z" />
    <glyph glyph-name="c" unicode="c" 
d="M329 780c36.667 17.333 65.6699 6.33105 87.0029 -33.002s13.666 -67.666 -23.001 -84.999c-48.667 -22.667 -91.834 -57.167 -129.501 -103.5s-68.5 -94.166 -92.5 -143.499c-17.333 -36 -32 -84 -44 -144s5.33301 -102 52 -126c38 -20 81 -16 129 12s87 53 117 75
c78.667 57.333 149.667 124.666 213 201.999c26.667 32.667 54.667 32.667 84 0s30.666 -65 3.99902 -97c-43.333 -52.667 -91 -102.5 -143 -149.5s-106.333 -86.833 -163 -119.5c-51.333 -30 -109 -51.667 -173 -65s-120 4.33398 -168 53.001
c-52.667 53.333 -79 116.5 -79 189.5s15.833 145 47.5 216s73.5 135.667 125.5 194s104 99.833 156 124.5z" />
    <glyph glyph-name="d" unicode="d" horiz-adv-x="884" 
d="M629 1484c-4 40 14.8359 59.832 56.5029 59.499s64.5 -20.166 68.5 -59.499c19.333 -219.333 19 -438.333 -1 -657s-33.667 -437.334 -41 -656.001c-1.33301 -40 -22.333 -60.167 -63 -60.5s-61.334 19.834 -62.001 60.501c-12 -12.667 -26.667 -19 -44 -19
c-72 0 -146.167 2.16699 -222.5 6.5s-147.833 21.5 -214.5 51.5c-78.667 34.667 -120.334 87.167 -125.001 157.5s15.666 137.5 60.999 201.5c83.333 116 179.666 152.167 288.999 108.5s200 -116.167 272 -217.5l33 511c10.667 170.667 8.33398 341.667 -6.99902 513z
M565.003 273.999c-16.667 42 -39.8369 81.832 -69.5039 119.499s-59.5 70.167 -89.5 97.5c-20 17.333 -42.833 34.5 -68.5 51.5s-52.167 25.833 -79.5 26.5c-47.333 0.666992 -88.666 -28.666 -123.999 -87.999c-11.333 -18.667 -21.666 -39.5 -30.999 -62.5
s-7.66602 -43.167 5.00098 -60.5c10 -15.333 26.167 -27.333 48.5 -36s42.833 -15 61.5 -19c52.667 -13.333 106.334 -21 161.001 -23s109.334 -3 164.001 -3c7.33301 0 14.666 -1 21.999 -3z" />
    <glyph glyph-name="e" unicode="e" horiz-adv-x="910" 
d="M145 191c6 -24.667 15.0039 -42.334 27.0039 -53.001c9.33301 -8.66699 24.333 -12 45 -10c27.333 2.66699 56 12.834 86 30.501s57 35.5 81 53.5c54.667 39.333 107.667 84.5 159 135.5s95 105.5 131 163.5c21.333 34 50 40.5 86 19.5s43.333 -48.5 22 -82.5
c-40 -64 -94 -129.333 -162 -196c-52.667 -52.667 -117.334 -108.834 -194.001 -168.501s-156 -86.167 -238 -79.5c-100.667 9.33301 -157.834 70.333 -171.501 183s-7.5 204.667 18.5 276c13.333 34 33.333 65.833 60 95.5s59 48.834 97 57.501
c28 6 58.333 5.83301 91 -0.5s59 -21.5 79 -45.5c65.333 -79.333 62.166 -153.833 -9.50098 -223.5s-140.834 -121.5 -207.501 -155.5zM132.004 324c28.667 15.333 56 33.332 82 53.999s45.333 45 58 73c2.66699 6 4 12.667 4 20c0 2.66699 -0.333008 4.66699 -1 6
c-4 8.66699 -10.333 14.334 -19 17.001c-14.667 4 -29 3.33301 -43 -2c-18 -8 -32 -20 -42 -36c-23.333 -36 -36.333 -80 -39 -132z" />
    <glyph glyph-name="f" unicode="f" horiz-adv-x="910" 
d="M153 655c-12 -81.333 -19.332 -165.997 -21.999 -253.997c-6.66699 -164 -3.33398 -329.167 9.99902 -495.5s40 -329.5 80 -489.5c9.33301 -38.667 -6 -63.5 -46 -74.5s-65 2.83301 -75 41.5c-14 56 -25.833 112.333 -35.5 169s-17.834 113.334 -24.501 170.001
c-20 152 -32.667 307 -38 465s2.66699 314 24 468c-27.333 38.667 -22 70 16 94c6 35.333 13 68.666 21 99.999c19.333 81.333 46 161.666 80 240.999s80 150.333 138 213c114 122 258.667 183.667 434 185c40 0 60 -20.833 60 -62.5s-20 -62.5 -60 -62.5
c-90.667 0 -168.667 -19.333 -234 -58c-66 -38.667 -119.667 -90.167 -161 -154.5s-74 -131.5 -98 -201.5c-18.667 -56 -33 -107.667 -43 -155c82 26 165.333 47 250 63s171 17.333 259 4c39.333 -6.66699 53.333 -30 42 -70s-36.666 -57 -75.999 -51
c-85.333 13.333 -170 9.16602 -254 -12.501s-166.333 -45.834 -247 -72.501z" />
    <glyph glyph-name="g" unicode="g" horiz-adv-x="998" 
d="M846 -1184c-2.66699 -40 -24.8301 -60 -66.4971 -60s-61.167 20 -58.5 60c21.333 302 27.166 604.333 17.499 907s-19.834 605.334 -30.501 908.001c-30.667 -49.333 -65.667 -97 -105 -143c-48.667 -56 -111.167 -107.833 -187.5 -155.5s-153.5 -50.834 -231.5 -9.50098
c-88 46 -136.667 116 -146 210c-4.66699 44 3.33301 85.833 24 125.5s47 74.167 79 103.5c65.333 61.333 144.166 112.333 236.499 153s183.833 62 274.5 64c18 0 33 -6 45 -18v6v6c0 40 20.5 60 61.5 60s62.167 -20 63.5 -60
c8.66699 -358.667 21.167 -718.167 37.5 -1078.5s11.833 -719.833 -13.5 -1078.5zM677.004 859c-5.33301 -3.33301 -13.666 -5.33398 -24.999 -6.00098c-69.333 -1.33301 -141.333 -17.333 -216 -48s-137.667 -69 -189 -115c-20.667 -18 -40.834 -39.5 -60.501 -64.5
s-27.5 -52.5 -23.5 -82.5c2 -23.333 12.333 -46.833 31 -70.5s39.667 -38.5 63 -44.5c56 -15.333 110.5 1.83398 163.5 51.501s93.833 94.167 122.5 133.5c26 35.333 51.333 73.833 76 115.5s44 85.167 58 130.5z" />
    <glyph glyph-name="h" unicode="h" horiz-adv-x="960" 
d="M11 1901c-3.33301 40 15.832 60 57.499 60s64.167 -20 67.5 -60l29.5 -453.5l29.5 -451.5l17.5 -250.5l17.5 -248.5c16 47.333 37.5 94.333 64.5 141s63.5 79.667 109.5 99c66 28 120.5 21.667 163.5 -19s78.5 -94.667 106.5 -162s51.167 -137.5 69.5 -210.5
s36.5 -127.5 54.5 -163.5c17.333 -36 8 -64.667 -28 -86s-62.667 -13.666 -80 23.001c-25.333 52 -45.5 106.333 -60.5 163s-32.167 112 -51.5 166c-10 26.667 -20.667 53.5 -32 80.5s-25.666 52.167 -42.999 75.5c-17.333 21.333 -34 27.666 -50 18.999
c-41.333 -24 -71.333 -63.833 -90 -119.5s-33.334 -104.5 -44.001 -146.5c-24.667 -94.667 -42 -187.667 -52 -279c-4 -32 -24.167 -52.333 -60.5 -61s-57.166 6 -62.499 44c-21.333 152 -36.333 305.167 -45 459.5s-18 308.5 -28 462.5l-30 458.5z" />
    <glyph glyph-name="i" unicode="i" horiz-adv-x="391" 
d="M132 705c0 40 20.833 60 62.5 60s62.5 -20 62.5 -60c-0.666992 -73.333 -3.33398 -146.5 -8.00098 -219.5s-7 -145.833 -7 -218.5c0 -40 -20.833 -60 -62.5 -60s-62.5 20 -62.5 60c0 72.667 2.33301 145.5 7 218.5s7.33398 146.167 8.00098 219.5zM180 890
c-40.667 0 -61 21 -61 63s20.333 63 61 63c40 0 60 -21 60 -63s-20 -63 -60 -63z" />
    <glyph glyph-name="j" unicode="j" horiz-adv-x="366" 
d="M123 833c-40.667 0 -61 20.833 -61 62.5s20.333 62.5 61 62.5c40 0 60 -20.833 60 -62.5s-20 -62.5 -60 -62.5zM62 606c-0.666992 40 19.834 60 61.501 60s63.167 -20 64.5 -60c7.33301 -350.667 28.333 -700.667 63 -1050s67 -699 97 -1049
c3.33301 -40 -15.834 -60 -57.501 -60s-64.167 20 -67.5 60c-30 350 -62.333 699.667 -97 1049s-56 699.333 -64 1050z" />
    <glyph glyph-name="k" unicode="k" horiz-adv-x="948" 
d="M23 1939c-2.66699 40 16.832 59.998 58.499 59.998s64.167 -20 67.5 -60c16 -246 26.833 -492.333 32.5 -739s16.834 -493 33.501 -739c49.333 52 95.333 107.167 138 165.5l127 177.5c22.667 32 52 37.667 88 17s42.667 -47.667 20 -81l-115 -161.5
c-38.667 -53.667 -79.667 -105.167 -123 -154.5c80 -47.333 156.333 -99.833 229 -157.5s143.334 -117.5 212.001 -179.5c29.333 -28 29.333 -56.333 0 -85s-59 -29.667 -89 -3c-74 66.667 -150.333 130.334 -229 191.001s-162 114.334 -250 161.001
c5.33301 -68.667 11.333 -137.167 18 -205.5s14.667 -136.166 24 -203.499c5.33301 -40 -12.834 -59.833 -54.501 -59.5s-65.167 20.166 -70.5 59.499c-44 330 -69 662 -75 996s-20 667.667 -42 1001z" />
    <glyph glyph-name="l" unicode="l" horiz-adv-x="442" 
d="M37 1934c-2.66699 40 16.833 60.001 58.5 60.001s63.834 -20 66.501 -60c22 -333.333 36 -666.833 42 -1000.5s31 -665.834 75 -996.501c4.66699 -40 -13.833 -59.833 -55.5 -59.5s-64.834 20.166 -69.501 59.499c-44 330.667 -69 662.834 -75 996.501
s-20 667.167 -42 1000.5z" />
    <glyph glyph-name="m" unicode="m" horiz-adv-x="1276" 
d="M149 67c-0.666992 -40 -21.835 -59.999 -63.502 -59.999s-62.167 20 -61.5 60c0 121.333 13 236 39 344c12 50.667 31.5 106 58.5 166s69.5 98 127.5 114c66 18 120.833 2.5 164.5 -46.5s76.834 -99.833 99.501 -152.5c14.667 -34.667 25 -61 31 -79
c6.66699 19.333 17.334 47.666 32.001 84.999c21.333 51.333 50.833 108 88.5 170s88.5 98 152.5 108c80.667 12.667 142.834 -6.83301 186.501 -58.5s75.834 -116.334 96.501 -194.001s33.667 -158.334 39 -242.001s10.666 -150.5 15.999 -200.5
c4 -40 -14.833 -60 -56.5 -60s-64.5 20 -68.5 60c-6.66699 64.667 -12.667 129.5 -18 194.5s-16 129.167 -32 192.5c-6.66699 26.667 -21.834 69.334 -45.501 128.001s-56.834 77.334 -99.501 56.001c-43.333 -22 -77.166 -57.5 -101.499 -106.5s-43.5 -94.5 -57.5 -136.5
c-16 -46 -30 -92.833 -42 -140.5s-18 -95.5 -18 -143.5c-0.666992 -34 -20.167 -54.333 -58.5 -61s-59.833 8 -64.5 44c-16 101.333 -41 197.333 -75 288c-8 19.333 -25.5 57.166 -52.5 113.499s-54.833 76.833 -83.5 61.5c-38 -20 -64 -55.667 -78 -107
s-24 -95.666 -30 -132.999c-16.667 -90.667 -25 -178.667 -25 -264z" />
    <glyph glyph-name="n" unicode="n" 
d="M38 818c-3.33301 40 16.0029 60 58.0029 60s64.333 -20 67 -60c2 -36 4.33301 -72 7 -108s5.66699 -71.667 9 -107c14 36 32.5 70 55.5 102s52.5 56 88.5 72c61.333 26 114.666 23.5 159.999 -7.5s85 -74.333 119 -130s63 -115.167 87 -178.5
s45.333 -113.666 64 -150.999c17.333 -36.667 8 -65.5 -28 -86.5s-62.667 -13.5 -80 22.5c-8 16 -21.833 49.667 -41.5 101s-42.334 103 -68.001 155s-53 95.5 -82 130.5s-56.833 44.5 -83.5 28.5c-34 -20.667 -58.667 -52.834 -74 -96.501s-27 -83.167 -35 -118.5
c-10 -40 -18 -80.167 -24 -120.5s-11 -80.5 -15 -120.5c-4 -32 -24.333 -52.333 -61 -61s-57.334 6 -62.001 44c-15.333 104 -27.5 208.5 -36.5 313.5s-17.167 210.5 -24.5 316.5z" />
    <glyph glyph-name="o" unicode="o" horiz-adv-x="783" 
d="M78 181c-27.333 30 -26.332 59.835 3.00098 89.502s58 29.5 86 -0.5c42 -47.333 91.333 -64.333 148 -51s104.334 40.666 143.001 81.999c40.667 42.667 64.667 93.834 72 153.501s-10 113.5 -52 161.5c-67.333 76 -141 77.667 -221 5s-118.667 -146 -116 -220
c1.33301 -40.667 -18.834 -61 -60.501 -61s-63.167 20.333 -64.5 61c-2.66699 68.667 17.666 135.167 60.999 199.5s95.833 113.833 157.5 148.5s126 48 193 40s123.167 -49.667 168.5 -125c47.333 -78.667 65.333 -161.334 54 -248.001s-52 -160.334 -122 -221.001
c-65.333 -56.667 -140.833 -90.667 -226.5 -102s-160.167 18 -223.5 88z" />
    <glyph glyph-name="p" unicode="p" horiz-adv-x="745" 
d="M223 -1029c7.33301 -39.333 -9.16797 -64.668 -49.501 -76.001s-63.833 2.66699 -70.5 42c-18 97.333 -31.833 195.333 -41.5 294s-17.834 197 -24.501 295c-10 138 -15.667 276 -17 414s7.33398 275.667 26.001 413c8.66699 64 22 130 40 198s49 127.333 93 178
c42 48.667 94 74.167 156 76.5s118.667 -15.167 170 -52.5c74.667 -54.667 114.167 -129.167 118.5 -223.5s-13.5 -179.166 -53.5 -254.499c-43.333 -81.333 -103.166 -139.5 -179.499 -174.5s-156.833 -36.5 -241.5 -4.5c-2 -48.667 -3 -97.5 -3 -146.5s1 -98.5 3 -148.5
c4.66699 -170 16.334 -344.333 35.001 -523c5.33301 -55.333 10.666 -107.333 15.999 -156s13 -99 23 -151zM156.999 223.998c7.33301 0 15 -1.99902 23 -5.99902c90 -44 166.5 -28.667 229.5 46s93.5 153.667 91.5 237c-2 38.667 -12.333 74.667 -31 108
s-48 55.666 -88 66.999c-14 4 -24 6.33301 -30 7c-12 0 -20.667 -0.666992 -26 -2c-16 -4 -29 -11 -39 -21c-29.333 -26 -53.333 -66.333 -72 -121c-20 -59.333 -35.667 -129.333 -47 -210c-3.33301 -23.333 -7 -58.333 -11 -105z" />
    <glyph glyph-name="q" unicode="q" horiz-adv-x="720" 
d="M496 -1113c-6.66699 -40 -30.1699 -54.335 -70.5029 -43.002s-56.833 36.666 -49.5 75.999c4 26 7 46.667 9 62l8 62c10 84.667 17.667 159.334 23 224.001c6.66699 78 12.667 156 18 234c-33.333 -10 -66.166 -20.5 -98.499 -31.5l-95.5 -31.5
c-39.333 -12 -64.333 2.16699 -75 42.5s3 66.5 41 78.5l116.5 38c39 12.667 78.5 24 118.5 34c3.33301 80 5 152.667 5 218c0.666992 72 0.333984 136.333 -0.999023 193c-129.333 -48 -239 -17.5 -329 91.5s-127 226.167 -111 351.5c8 60 29.833 116.333 65.5 169
s86.5 85 152.5 97c86 14.667 157 -14.666 213 -87.999c40 -54 67.333 -115.833 82 -185.5s26 -136.5 34 -200.5c10 -90 16 -180 18 -270s2 -180.333 0 -271l-2 -38c-0.666992 -12.667 -1 -25.667 -1 -39c98 16.667 188 18.334 270 5.00098c39.333 -6 53.333 -29 42 -69
s-36.333 -57 -75 -51c-74 11.333 -154.667 8 -242 -10c-5.33301 -108 -13.166 -216.5 -23.499 -325.5s-24.5 -216.5 -42.5 -322.5zM437.997 173.998c-5.33301 64.667 -13.333 127.667 -24 189c-6 30 -13.167 61.5 -21.5 94.5s-18.5 61.5 -30.5 85.5
c-6 12.667 -13 25.667 -21 39c-4.66699 6.66699 -9.33398 13 -14.001 19c-2 1.33301 -5.5 4.33301 -10.5 9l-7.5 7c-9.33301 6 -13.333 9 -12 9c-8 2.66699 -14 4.33398 -18 5.00098c-8 1.33301 -8.5 1.66602 -1.5 0.999023s6.5 -1 -1.5 -1
c-12 0.666992 -18.333 0.666992 -19 0c-30.667 -6 -54.667 -17.333 -72 -34c-27.333 -26 -44.5 -57 -51.5 -93s-8.16699 -71.667 -3.5 -107c8.66699 -69.333 39.334 -135 92.001 -197s118 -73 196 -33c9.33301 4 16 6.33301 20 7z" />
    <glyph glyph-name="r" unicode="r" horiz-adv-x="859" 
d="M46 664c-10 38.667 5.16895 63.668 45.502 75.001s65.5 -2.66699 75.5 -42l19.5 -86.5l18.5 -86.5c37.333 105.333 92.666 194.833 165.999 268.5s165.666 95.5 276.999 65.5c38.667 -11.333 52.5 -37 41.5 -77s-35.833 -54.667 -74.5 -44
c-67.333 18 -122.833 2.33301 -166.5 -47s-77.167 -100.333 -100.5 -153c-26 -58.667 -46.333 -121 -61 -187s-20 -131 -16 -195c2 -34.667 -16.5 -54.834 -55.5 -60.501s-61.5 9.16602 -67.5 44.499c-14.667 88 -30.167 175.833 -46.5 263.5s-34.833 174.834 -55.5 261.501
z" />
    <glyph glyph-name="s" unicode="s" horiz-adv-x="720" 
d="M470 940c40 0.666992 60.002 -19.832 60.002 -61.499s-20 -62.834 -60 -63.501c-36 -1.33301 -72.167 -9.16602 -108.5 -23.499s-69.5 -30.833 -99.5 -49.5c-24 -14.667 -51.833 -35 -83.5 -61s-48.167 -54.667 -49.5 -86c-2 -18 -0.666992 -31 4 -39
c8.66699 -18 14.334 -27 17.001 -27c3.33301 -2 4.33301 -2.66699 3 -2c2 -1.33301 4.33301 -2.33301 7 -3l8 -2c22 -6.66699 44.667 -12.667 68 -18l70 -16c48.667 -12.667 101.334 -28.167 158.001 -46.5s102 -48.5 136 -90.5c46 -56.667 52.167 -112.834 18.5 -168.501
s-73.167 -101.5 -118.5 -137.5c-32 -24 -62.833 -21.5 -92.5 7.5s-28.5 56.167 3.5 81.5l44 35.5c15.333 12.333 28.333 26.5 39 42.5c13.333 20 19.666 35.667 18.999 47c0 -2.66699 -0.666992 -2.33398 -2 0.999023s-2 5.33301 -2 6c-5.33301 6 -10 11 -14 15
c-10.667 9.33301 -29 20.333 -55 33c-48.667 22 -99.167 38.167 -151.5 48.5s-103.5 23.5 -153.5 39.5c-66.667 20 -107.834 63.333 -123.501 130s-3.83398 127.334 35.499 182.001c46 62.667 108.167 115.5 186.5 158.5s157.166 65.5 236.499 67.5z" />
    <glyph glyph-name="t" unicode="t" horiz-adv-x="771" 
d="M267 2072c-2.66699 40 16.832 60 58.499 60s63.834 -20 66.501 -60c6.66699 -110.667 13 -233.334 19 -368.001c96 14.667 185.333 16 268 4c39.333 -6.66699 53.333 -30 42 -70s-36.666 -57 -75.999 -51c-68.667 10.667 -145 8.33398 -229 -6.99902l28.5 -754
c9.66699 -251.333 31.167 -502 64.5 -752c4.66699 -40 -13.833 -59.833 -55.5 -59.5s-64.834 20.166 -69.501 59.499c-32.667 244.667 -54 490.334 -64 737.001s-19.333 493.334 -28 740.001c-38 -11.333 -76 -23.333 -114 -36l-111 -36c-38 -12 -62.5 2.16699 -73.5 42.5
s2.5 66.5 40.5 78.5l126 40c42 13.333 84.333 25.666 127 36.999c-2.66699 66 -5.66699 131.833 -9 197.5s-7 131.5 -11 197.5z" />
    <glyph glyph-name="u" unicode="u" horiz-adv-x="922" 
d="M745 66c4 -40 -14.8301 -59.8271 -56.4971 -59.4941s-64.5 20.166 -68.5 59.499l-11.5 106l-11.5 107c-14 -37.333 -31.833 -72.5 -53.5 -105.5s-50.167 -57.833 -85.5 -74.5c-60.667 -28.667 -114.334 -28 -161.001 2s-87.834 72.5 -123.501 127.5
s-66.5 113.667 -92.5 176s-48.667 112.166 -68 149.499c-18 35.333 -9.33301 63.666 26 84.999s62.666 14 81.999 -22c8.66699 -16.667 23.5 -50.334 44.5 -101.001s45 -101.167 72 -151.5s55.667 -92.333 86 -126s59.166 -41.5 86.499 -23.5
c32 20.667 54.833 53.5 68.5 98.5s24.167 85.167 31.5 120.5c8 40 14.333 80.167 19 120.5s8.66699 81.166 12 122.499c2 32.667 21.333 52.667 58 60s58.334 -7.33398 65.001 -44.001c18 -104 33.167 -208.333 45.5 -313z" />
    <glyph glyph-name="v" unicode="v" horiz-adv-x="910" 
d="M3 675c-15.333 36.667 -5.16699 65.501 30.5 86.501s61.5 13.5 77.5 -22.5l87.5 -190.5c30.333 -63 63.166 -124.5 98.499 -184.5l56 -91c19.333 -30.667 41.333 -58.334 66 -83.001c4.66699 -5.33301 13.667 -14.5 27 -27.5s23.333 -18.5 30 -16.5
c6.66699 1.33301 15.334 11.666 26.001 30.999c10.667 22 20.667 44 30 66c20 57.333 39.667 122.333 59 195c25.333 101.333 46 201.666 62 300.999c6 39.333 29.167 53.333 69.5 42s57.5 -36.666 51.5 -75.999c-22 -132.667 -48 -252.667 -78 -360
c-14 -49.333 -33.5 -111 -58.5 -185s-65.833 -120 -122.5 -138c-64.667 -19.333 -123.667 3.33398 -177 68.001s-93.333 119 -120 163c-42 66.667 -80.5 135.667 -115.5 207s-68.167 143 -99.5 215z" />
    <glyph glyph-name="w" unicode="w" horiz-adv-x="1428" 
d="M1178 735c0 40 20.832 59.9961 62.499 59.9961s62.5 -20 62.5 -60c-0.666992 -58 -7.5 -117.167 -20.5 -177.5s-28.833 -117.5 -47.5 -171.5c-18.667 -52.667 -45.667 -111.334 -81 -176.001s-84.333 -102.667 -147 -114c-70 -13.333 -128.833 5.83398 -176.5 57.501
s-86.5 104.5 -116.5 158.5c-24.667 42.667 -42.667 76.334 -54 101.001c-22.667 -116 -62.167 -221.167 -118.5 -315.5s-137.5 -115.5 -243.5 -63.5c-31.333 14.667 -56.333 36.167 -75 64.5s-34.334 57.5 -47.001 87.5c-18 42 -33.667 84.833 -47 128.5
s-25 87.834 -35 132.501c-37.333 158 -65 317.333 -83 478c-4 40 14.833 59.833 56.5 59.5s64.834 -20.166 69.501 -59.499c12.667 -127.333 35.334 -262.333 68.001 -405c8.66699 -40 18.167 -79.5 28.5 -118.5s22.5 -77.5 36.5 -115.5c8 -24 17.833 -49.167 29.5 -75.5
s27.5 -47.166 47.5 -62.499c27.333 -22 55.666 -16 84.999 18c19.333 22 34.833 47.167 46.5 75.5s21.834 56.5 30.501 84.5c36.667 128 55.667 250 57 366c0 34 19 54.167 57 60.5s60 -8.5 66 -44.5c8 -51.333 22.833 -102.333 44.5 -153s44.5 -99 68.5 -145
c13.333 -25.333 37.333 -66.666 72 -123.999s70.334 -79.666 107.001 -66.999c42.667 14 75.167 49.167 97.5 105.5s39.166 103.5 50.499 141.5c12 43.333 23 87.666 33 132.999s15.333 90.666 16 135.999z" />
    <glyph glyph-name="x" unicode="x" 
d="M544 835c20.667 34 48.998 40.502 84.998 19.502s43.667 -48.5 23 -82.5c-26.667 -44 -55 -87 -85 -129l-90 -125l131 -75c43.333 -25.333 86 -51.666 128 -78.999c34 -22.667 40.5 -52 19.5 -88s-48.5 -42.667 -82.5 -20l-133.5 81l-135.5 78
c-28.667 -41.333 -56.167 -83.333 -82.5 -126s-50.166 -86.334 -71.499 -131.001c-18 -36.667 -45 -44.5 -81 -23.5s-45 49.833 -27 86.5c20.667 44.667 44.167 88.167 70.5 130.5s53.833 84.166 82.5 125.499c-102.667 57.333 -191 112.666 -265 165.999
c-32 22.667 -37.667 52.167 -17 88.5s47.334 42.833 80.001 19.5c44 -32 89 -62.167 135 -90.5s92.667 -55.5 140 -81.5l90 126.5c30 42.333 58.667 85.5 86 129.5z" />
    <glyph glyph-name="y" unicode="y" 
d="M437 460c-48 17.333 -90.3311 49.8301 -126.998 97.4971s-67 90.5 -91 128.5c-42 64 -80.667 130.333 -116 199s-69 138 -101 208c-16 36 -6.16699 64.667 29.5 86s61.834 13.666 78.501 -23.001c28 -62 57.167 -123.167 87.5 -183.5s63.5 -119.166 99.5 -176.499
c18 -30 37.167 -60 57.5 -90s43.166 -57.333 68.499 -82c16 -18 31.667 -31.333 47 -40c9.33301 2 18.333 2.33301 27 1l17 26c10 18.667 20.333 41.334 31 68.001c21.333 56.667 40.666 118.334 57.999 185.001c24.667 91.333 46 188.666 64 291.999
c6 39.333 29.167 53.5 69.5 42.5s57.5 -36.167 51.5 -75.5c-22.667 -132 -50.667 -253.667 -84 -365l-49.5 -152c-21 -63.333 -51.833 -108.666 -92.5 -135.999c21.333 -218.667 36 -438 44 -658s36 -438 84 -654c8 -38.667 -8.16699 -63.667 -48.5 -75
s-64.5 2.66699 -72.5 42c-48.667 220 -77.334 441.833 -86.001 665.5s-24 446.834 -46 669.501z" />
    <glyph glyph-name="z" unicode="z" 
d="M117 744c-39.333 -10 -64.6641 5.16699 -75.9971 45.5s3 65.166 43 74.499c124.667 30.667 249.667 30.667 375 0c40.667 -9.33301 55.334 -35 44.001 -77c-30 -98.667 -78.167 -187.167 -144.5 -265.5s-122.5 -161.5 -168.5 -249.5c96 24 192.667 45.333 290 64
s193.333 44 288 76c38 12.667 62.5 -1.16602 73.5 -41.499s-2.5 -66.5 -40.5 -78.5c-114.667 -38.667 -231.334 -68.5 -350.001 -89.5s-235.334 -49.5 -350.001 -85.5c-23.333 -8 -43.833 -2.83301 -61.5 15.5s-22.834 38.833 -15.501 61.5c31.333 106.667 84 202 158 286
s133 176 177 276c-80.667 10.667 -161.334 6.66699 -242.001 -12z" />
    <glyph glyph-name="currency" unicode="&#xa4;" horiz-adv-x="505" 
d="M443 232c2 0 3.33203 -0.666992 3.99902 -2v-2v-1c0.666992 -0.666992 1 -1.66699 1 -3c0 -2 0.166992 -4.16699 0.5 -6.5s0.833008 -4.5 1.5 -6.5c0 -2.66699 0.666992 -7.33398 2 -14.001c0 -2 -1 -3.33301 -3 -4c-2 0 -3 0.666992 -3 2l-2 8
c-0.666992 2.66699 -1 5.66699 -1 9c-1.33301 -3.33301 -2.66602 -5.66602 -3.99902 -6.99902c-1.33301 -2.66699 -3.33301 -5.33398 -6 -8.00098c-3.33301 -3.33301 -6.33301 -3.66602 -9 -0.999023c-4.66699 2 -6.33398 5 -5.00098 9c0 4.66699 1.33301 8.33398 4 11.001
c1.33301 3.33301 4.33301 6.66602 9 9.99902c2.66699 2.66699 6.33398 4.66699 11.001 6zM441.999 225c-6 -3.33301 -10.667 -7.33203 -14 -11.999c-0.666992 -0.666992 -1.16699 -1.33398 -1.5 -2.00098l-0.5 -1c-0.666992 -1.33301 -1 -3 -1 -5v-1.5v-0.5
c0 -0.666992 0.333008 -1 1 -1h1v-1v0l0.5 0.5l1.5 1.5c1.33301 0 2 0.666992 2 2c2 0.666992 3.66699 3 5 7c0 0.666992 0.5 1.5 1.5 2.5s1.83301 2.16699 2.5 3.5c1.33301 2.66699 2 5 2 7zM410.999 228.001c0 -0.666992 -0.666016 -1.00098 -1.99902 -1.00098
c-2 0 -3 0.666992 -3 2c-0.666992 0.666992 -0.333984 1.66699 0.999023 3l4 4c2 2 3.66699 3.33301 5 4c0.666992 1.33301 2 1.33301 4 0c1.33301 -1.33301 1.33301 -2.66602 0 -3.99902l-2.5 -2.5l-1.5 -1.5c-1.33301 -0.666992 -3 -2 -5 -4zM406 218c0 2 1 3 3 3
s3 -1 3 -3v-6v-5v-5.5v-5.5c0 -2 -1 -3 -3 -3s-3 1 -3 3v5.5v5.5v5v6zM390 223c0 2 1 3 3 3c1.33301 0 2.66602 -1 3.99902 -3c0 -18 1 -35.333 3 -52c0 -8.66699 0.5 -17.5 1.5 -26.5s1.83301 -17.5 2.5 -25.5c0.666992 -2 0 -3 -2 -3s-3.33301 1 -4 3
c-0.666992 8 -1.5 16.5 -2.5 25.5s-1.5 17.833 -1.5 26.5c-1.33301 10.667 -2.66602 28 -3.99902 52zM393 234c-2 0 -3 1 -3 3s1 3 3 3s3 -1 3 -3s-1 -3 -3 -3zM349 202l2.00781 -2c0 -0.666992 0.666992 -1 2 -1s2.66602 0.666992 3.99902 2l4 2
c2 1.33301 4.66699 3.66602 8 6.99902s5.66602 6 6.99902 8c0.666992 1.33301 2 1.66602 4 0.999023c1.33301 -1.33301 1.66602 -2.66602 0.999023 -3.99902c2.66699 4 0 0.666992 -8 -10c4 2.66699 0.666992 0 -10 -8c-2.66699 -2.66699 -6.33398 -4 -11.001 -4
c-5.33301 0.666992 -8.33301 3.66699 -9 9c-0.666992 4 -0.333984 8.66699 0.999023 14c0.666992 0.666992 1.66699 2.33398 3 5.00098c1.33301 1.33301 3 2 5 2c1.33301 1.33301 2.66602 1.33301 3.99902 0c1.33301 0 2.66602 -0.666992 3.99902 -2
c2.66699 -4 2.66699 -7.66699 0 -11c-6.66699 -5.33301 -10.334 -8 -11.001 -8zM349.008 209l1.5 0.999023c1 0.666992 1.83301 1.33398 2.5 2.00098l1 1l2 2v0.5v0.5v0v0l-0.5 0.5l-0.5 0.5h-1.5h-0.5c-1.33301 0 -2 -0.666992 -2 -2c-1.33301 -1.33301 -2 -3.33301 -2 -6z
M258.008 176.999c0 -2 -0.998047 -2.99902 -2.99805 -2.99902c-2.66699 0 -4 1 -4 3c0 3.33301 0.166992 6.83301 0.5 10.5s0.5 7.5 0.5 11.5c0.666992 9.33301 2 17 4 23c0 3.33301 1 7 3 11c0.666992 4 2.66699 7.33301 6 10s6.33301 3 9 1c4 -2.66699 6.33301 -5 7 -7
c1.33301 -2.66699 3.33301 -7.33398 6 -14.001c1.33301 -6.66699 2.33301 -11.334 3 -14.001v-1v0c0 -0.666992 0.333008 -1 1 -1v1v2c1.33301 6.66699 2.66602 11.667 3.99902 15c0.666992 3.33301 2.33398 8.33301 5.00098 15c0.666992 2 2.33398 5 5.00098 9
c2 3.33301 4.66699 5 8 5c3.33301 0.666992 6.66602 -0.333008 9.99902 -3c2.66699 -4 4.33398 -7.33301 5.00098 -10c2.66699 -6.66699 4 -12 4 -16c1.33301 -6.66699 2 -12 2 -16c0.666992 -3.33301 1 -8.33301 1 -15c0.666992 -4 1 -9.33301 1 -16c0 -2 -1 -3 -3 -3
s-3 1 -3 3c0 5.33301 -0.666992 14.666 -2 27.999c0 10 -1.33301 19 -4 27c0 0.666992 -0.166992 1.5 -0.5 2.5s-0.5 2.16699 -0.5 3.5c-0.666992 0.666992 -1.33398 1.5 -2.00098 2.5s-1 2.16699 -1 3.5c-0.666992 0 -1.33398 0.333008 -2.00098 1s-1 1.33398 -1 2.00098
h-1.5h-0.5h-0.5h-0.5h-0.5h-0.5v0v0c-0.666992 0 -1 -0.166992 -1 -0.5v-0.5c-1.33301 0 -2 -0.666992 -2 -2c-2.66699 -4 -4.66699 -7.33301 -6 -10c-2 -4 -3.33301 -8.66699 -4 -14c-1.33301 -6.66699 -2.33301 -11.334 -3 -14.001c-0.666992 -2 -1.16699 -4 -1.5 -6
s-0.5 -4 -0.5 -6s-0.166992 -4 -0.5 -6s-0.5 -4 -0.5 -6s-1 -3 -3 -3s-3 1 -3 3c-1.33301 10.667 -3.33301 21.667 -6 33c0 2 -0.666992 4.33301 -2 7c-0.666992 0.666992 -1.16699 1.66699 -1.5 3s-0.5 2.66602 -0.5 3.99902
c-0.666992 0.666992 -1.66699 2.33398 -3 5.00098c-2 2 -2.66699 3 -2 3c-0.666992 0.666992 -1.33398 1 -2.00098 1v0v0c-0.666992 0 -1.66699 -0.666992 -3 -2s-2 -2.66602 -2 -3.99902c-1.33301 -1.33301 -2 -2.66602 -2 -3.99902c-2 -5.33301 -3 -10.333 -3 -15
c-1.33301 -5.33301 -2 -10 -2 -14c-0.666992 -2.66699 -1 -6.66699 -1 -12v-5.5v-5.5zM190.01 202c-2.66699 1.33301 -2.66504 2.66992 0.00195312 4.00293c1.33301 2.66699 2.66602 2.66699 3.99902 0c2 -2.66699 4.66699 -3.33398 8 -2.00098c2 0 4.33301 1.33301 7 4
c2 2 3 4.33301 3 7c0.666992 2.66699 0 5.33398 -2 8.00098c-4 3.33301 -7.66699 3.66602 -11 0.999023c-4 -4 -6 -7.66699 -6 -11c0 -2 -1 -3 -3 -3s-3 1 -3 3c0 3.33301 1 6.66602 3 9.99902c1.33301 2 4 4.33301 8 7c1.33301 1.33301 4.33301 2 9 2c3.33301 0 6 -2 8 -6
c2.66699 -4 3.66699 -8 3 -12c-1.33301 -4.66699 -3.33301 -8.33398 -6 -11.001c-3.33301 -3.33301 -7 -5 -11 -5c-4.66699 -1.33301 -8.33398 0 -11.001 4zM146.012 226.004c-1.33301 1.33301 -0.668945 2.66797 1.99805 4.00098c1.33301 0 2.66602 -0.666992 3.99902 -2
c0 -2 0.333008 -3.66699 1 -5c0 -2 0.333008 -3.33301 1 -4c0.666992 5.33301 3.33398 9.66602 8.00098 12.999c2.66699 3.33301 7.33398 4.66602 14.001 3.99902c1.33301 -1.33301 2 -2.66602 2 -3.99902c-1.33301 -2 -2.66602 -3 -3.99902 -3
c-4 0.666992 -6.66699 0 -8 -2c-2 -1.33301 -3.66699 -3.66602 -5 -6.99902c-2 -2.66699 -3.33301 -6 -4 -10v-5v-4c0 -2 -1 -3 -3 -3c-2 -1.33301 -3 -0.666016 -3 2.00098c-1.33301 5.33301 -2.33301 9.66602 -3 12.999c0 3.33301 -0.666992 7.66602 -2 12.999z
M128.009 232.006c1.33301 0 2.33496 -0.665039 3.00195 -1.99805s0.666992 -2.33301 0 -3c0 -0.666992 0.166992 -1.33398 0.5 -2.00098s0.833008 -1 1.5 -1c0 -6 0.333008 -10.333 1 -13c0 -2.66699 0.166992 -5.16699 0.5 -7.5s0.833008 -4.5 1.5 -6.5
c0 -2 -0.666992 -3.33301 -2 -4c-2.66699 0 -4 0.666992 -4 2c-1.33301 8 -2 13.667 -2 17c-2.66699 -4 -4.33398 -6.33301 -5.00098 -7c-1.33301 -2.66699 -3.33301 -5.33398 -6 -8.00098c-3.33301 -3.33301 -6.33301 -3.66602 -9 -0.999023
c-4.66699 2 -6.33398 5 -5.00098 9c0 4 1 7.66699 3 11c2.66699 3.33301 6 6.66602 10 9.99902c2.66699 2.66699 6.66699 4.66699 12 6zM126.011 225.008c-6.66699 -4 -11.334 -7.99902 -14.001 -11.999c-0.666992 -0.666992 -1.16699 -1.33398 -1.5 -2.00098l-0.5 -1
c-0.666992 -1.33301 -1 -3 -1 -5c0 -1.33301 0.333008 -2 1 -2c0 -0.666992 0.166992 -1 0.5 -1h0.5v-1v0l2 2c1.33301 0 2 0.666992 2 2c1.33301 0.666992 3.33301 3 6 7c0 0.666992 0.333008 1.5 1 2.5s1.33398 2.16699 2.00098 3.5c1.33301 2.66699 2 5 2 7z
M74.0107 251.009c2 -1.33301 3.00391 -2.66602 3.00391 -3.99902c0 -2.66699 -1 -3.33398 -3 -2.00098c-6.66699 0 -11.667 -1.33301 -15 -4c-6.66699 -4 -11.334 -7 -14.001 -9c-4 -4 -7.33301 -8.33301 -10 -13c-2.66699 -2.66699 -5.33398 -7.33398 -8.00098 -14.001
c0 -2 -0.166992 -3.5 -0.5 -4.5s-0.5 -1.83301 -0.5 -2.5v-8c0 -1.33301 0.666992 -2.66602 2 -3.99902c0 -2.66699 1 -4 3 -4c3.33301 -2.66699 6.33301 -3.33398 9 -2.00098c5.33301 1.33301 8.66602 2.33301 9.99902 3c4.66699 2 9 4.33301 13 7c8 6 11.667 8.66699 11 8
c1.33301 0.666992 2.66602 1.66699 3.99902 3s3 2.66602 5 3.99902l3 3l4 4c1.33301 1.33301 3 1.33301 5 0c1.33301 -1.33301 1.33301 -2.66602 0 -3.99902c-2 -2.66699 -5.66699 -6 -11 -10c-2 -2 -5.66699 -5 -11 -9c-2.66699 -2 -7.33398 -5 -14.001 -9
c-5.33301 -3.33301 -10.666 -5.33301 -15.999 -6c-3.33301 -1.33301 -7 -1.33301 -11 0c-4 0.666992 -6.66699 2.66699 -8 6c-3.33301 5.33301 -5 10 -5 14c1.33301 8.66699 2.33301 13.334 3 14.001c4 12 11 22 21 30c6 4.66699 10.667 7.66699 14 9
c5.33301 2.66699 11 4 17 4zM409.015 282.009c0 -1.33301 0.334961 -2.33301 1.00195 -3h0.5h1.5c2 0 3.33301 0.333008 4 1c1.33301 0.666992 2.66602 1.66699 3.99902 3c4 2.66699 6.66699 5 8 7c2 1.33301 4.33301 4 7 8
c1.33301 1.33301 2.66602 1.66602 3.99902 0.999023c2 -1.33301 2.33301 -2.66602 1 -3.99902c-1.33301 -2.66699 -4 -6 -8 -10c-2 -2 -3.66699 -3.5 -5 -4.5s-2.66602 -2.16699 -3.99902 -3.5c-4.66699 -4 -8.66699 -5.33301 -12 -4c-5.33301 0 -8.33301 3 -9 9
c-1.33301 4 -1 8.33301 1 13c1.33301 2.66699 2.33301 4.33398 3 5.00098l5 3h1.5h2.5c1.33301 0 2.66602 -0.666992 3.99902 -2c3.33301 -4 3.33301 -7.66699 0 -11c-2.66699 -2.66699 -6 -5.33398 -10 -8.00098zM408.017 289.009c1.33301 0 2.66699 0.667969 4 2.00098
s2.33301 2.66602 3 3.99902v0v1v0v0c0 0.666992 -0.333008 1 -1 1h-1.5h-0.5l-2 -2c-1.33301 -2.66699 -2 -4.66699 -2 -6zM389.018 346.01c0 2 1 3.00195 3 3.00195s3 -1 3 -3c0.666992 -11.333 0.666992 -22.333 0 -33c-1.33301 -14.667 -2 -25.334 -2 -32.001
c0 -2 -1 -3 -3 -3s-3 1 -3 3c-0.666992 -0.666992 -1.66699 -1 -3 -1h-5.5h-5.5c-7.33301 2 -10.666 3 -9.99902 3c-4 2 -6 4.66699 -6 8c-1.33301 2.66699 -0.333008 6 3 10c4 5.33301 8.66699 7 14 5c5.33301 -2.66699 9.66602 -6.33398 12.999 -11.001
c1.33301 12 2 20.667 2 26c0.666992 8 0.666992 16.333 0 25zM386.018 286.012c-1.33301 2.66699 -2.66797 4.66797 -4.00098 6.00098c-0.666992 0.666992 -1.5 1.33398 -2.5 2.00098s-1.5 1.66699 -1.5 3l-4 2c-1.33301 1.33301 -2.66602 2 -3.99902 2
c-2 0 -4 -1.66699 -6 -5c0 -0.666992 -0.166992 -1.33398 -0.5 -2.00098l-0.5 -1c-1.33301 -1.33301 -1.33301 -2.33301 0 -3c0 -0.666992 0.166992 -1.16699 0.5 -1.5s0.833008 -0.5 1.5 -0.5h1h2c8 -2.66699 10.667 -3.33398 8 -2.00098h4h4h0.5h1.5zM296.016 281.013
c-1.33301 1.33301 -1.33203 3.00098 0.000976562 5.00098c1.33301 0.666992 2.66602 0.666992 3.99902 0c1.33301 -2 4 -3 8 -3c4 2 6.33301 3.33301 7 4c2 2 3 4.66699 3 8c0.666992 2.66699 0 5.33398 -2 8.00098c-4 3.33301 -7.66699 3.33301 -11 0
c-4 -3.33301 -6 -7 -6 -11c0 -2 -1 -3 -3 -3s-3 1 -3 3c0 3.33301 1 6.66602 3 9.99902s4.66699 5.66602 8 6.99902c2.66699 2 5.66699 3 9 3c2.66699 -1.33301 5.66699 -3.66602 9 -6.99902c2 -4.66699 2.66699 -8.66699 2 -12c0 -4.66699 -2 -8.33398 -6 -11.001
c-2 -2 -5.66699 -3.66699 -11 -5c-4 -1.33301 -7.66699 0 -11 4zM264.017 319.014l11.001 -1.99902c2 0 3 -1 3 -3v0c0 -2.66699 -1 -3.33398 -3 -2.00098l-12 1c-2.66699 0 -3.33398 1 -2.00098 3v0c0 2 1 3 3 3zM251.018 308.015c0 2 0.996094 2.99707 2.99609 2.99707
c1.33301 0 2.66602 -1 3.99902 -3v-2.5v-2.5v-3v-2c0 0.666992 0.333008 1.33398 1 2.00098s1.33398 1.66699 2.00098 3c2 2 3.33301 3 4 3c2.66699 2 5.33398 2 8.00098 0c2 -1.33301 4 -3.33301 6 -6c0.666992 -2 1.33398 -3.66699 2.00098 -5
s1.66699 -2.66602 3 -3.99902c1.33301 -4 2.33301 -6.66699 3 -8c0.666992 -2 0 -3.33301 -2 -4c-2 -2 -3.33301 -1.66699 -4 1c0 0.666992 -0.666992 2.33398 -2 5.00098c-0.666992 1.33301 -1.33398 2.5 -2.00098 3.5s-1 2.5 -1 4.5
c-1.33301 2.66699 -2.66602 4.66699 -3.99902 6c-0.666992 1.33301 -2 2 -4 2c-1.33301 -0.666992 -2.66602 -2.33398 -3.99902 -5.00098c-0.666992 -1.33301 -1.16699 -2.5 -1.5 -3.5s-0.5 -1.83301 -0.5 -2.5c0 -2.66699 -0.333008 -4.66699 -1 -6v-3.5v-2.5
c-1.33301 -2 -2.66602 -3 -3.99902 -3s-2.33301 0.666992 -3 2c0 2 -0.166992 4.5 -0.5 7.5s-0.5 5.83301 -0.5 8.5c-0.666992 2 -1.16699 4.33301 -1.5 7s-0.5 5.33398 -0.5 8.00098zM213.014 282.012c0 -0.666992 0.168945 -1.33398 0.501953 -2.00098s0.833008 -1 1.5 -1
h0.5h1.5c2 0 3.33301 0.333008 4 1c1.33301 0.666992 2.66602 1.66699 3.99902 3c4 2.66699 6.66699 5 8 7c2 1.33301 4.33301 4 7 8c1.33301 1.33301 2.66602 1.66602 3.99902 0.999023c2 -1.33301 2.33301 -2.66602 1 -3.99902c-1.33301 -2.66699 -4 -6 -8 -10
c-1.33301 -1.33301 -4.66602 -4 -9.99902 -8c-4 -4 -7.66699 -5.33301 -11 -4c-5.33301 0 -8.33301 3 -9 9c-1.33301 4 -1 8.33301 1 13c1.33301 2.66699 2.33301 4.33398 3 5.00098l5 3h1.5h2.5c1.33301 0 2.66602 -0.666992 3.99902 -2c3.33301 -4 3.33301 -7.66699 0 -11
s-7 -6 -11 -8zM213.016 289.012c1.33301 0 2.66699 0.667969 4 2.00098s2.33301 2.66602 3 3.99902v0v1v0v0l-0.5 0.5l-0.5 0.5h-1.5h-0.5l-2 -2c-1.33301 -2.66699 -2 -4.66699 -2 -6zM194.017 319.013c2 0 3 -0.999023 3 -2.99902s-1 -3 -3 -3
c-1.33301 0 -2.5 -0.166992 -3.5 -0.5l-1.5 -0.5c-2.66699 -1.33301 -4.33398 -2.33301 -5.00098 -3c-1.33301 -0.666992 -2.33301 -1.33398 -3 -2.00098s-1.33398 -1 -2.00098 -1c-1.33301 -1.33301 -2 -2.66602 -2 -3.99902v-1.5v-0.5c0 -0.666992 0.166992 -1 0.5 -1h0.5
v0v0c0 -0.666992 0.333008 -1 1 -1v0v0c1.33301 0 2.33301 -0.333008 3 -1h2h2c1.33301 -0.666992 4 -1.66699 8 -3c3.33301 -2 5.33301 -3.33301 6 -4c2.66699 -3.33301 3 -6.33301 1 -9c-2 -3.33301 -4 -5.33301 -6 -6c-1.33301 -2 -2.66602 -2 -3.99902 0
c-2.66699 1.33301 -2.66699 2.66602 0 3.99902l2 2c1.33301 0 2 0.666992 2 2l0.5 1l0.5 1v0v0v0v1h-0.5h-0.5l-2 2c-4 1.33301 -6.66699 2 -8 2c-4 1.33301 -6.66699 2 -8 2c-3.33301 0.666992 -5.33301 3 -6 7c-1.33301 2.66699 -0.666016 5.66699 2.00098 9
c2 3.33301 5 6 9 8s8 3 12 3zM160.017 317.014c-2 0 -3 1 -3 3s1 3 3 3s3 -1 3 -3s-1 -3 -3 -3zM158.017 307.014c0 2 1 3.00098 3 3.00098s3 -1 3 -3v-5.5v-4.5c-0.666992 -2.66699 -1 -6.33398 -1 -11.001c0 -2 -1 -3 -3 -3s-3 1 -3 3v5v6c0.666992 2 1 5.33301 1 10z
M92.0166 330.015c0 2 1.00488 3 3.00488 3c1.33301 0 2.66602 -1 3.99902 -3v-3v-2v-2.5v-1.5c6 2 9.33301 3 10 3c4.66699 0.666992 9.66699 0.666992 15 0c5.33301 -1.33301 9.66602 -3.33301 12.999 -6c4 -4.66699 7 -9 9 -13
c1.33301 -5.33301 1.66602 -10.666 0.999023 -15.999c-2.66699 -6.66699 -5.33398 -11.667 -8.00098 -15c-4.66699 -4.66699 -9.33398 -8.33398 -14.001 -11.001l-12 -6c-5.33301 -1.33301 -9.33301 -2 -12 -2c0 -4 0.333008 -7 1 -9c0 -2 -1 -3 -3 -3s-3 1 -3 3
c-0.666992 1.33301 -1 3 -1 5v1.5v2.5h-2h-1c-1.33301 0.666992 -2 2 -2 4c0.666992 2 2 2.66699 4 2v0v0v0v0c0 4 -0.166992 8 -0.5 12s-0.5 8 -0.5 12v12v12c-0.666992 0 -1.66699 0.666992 -3 2c0 2 0.333008 3.33301 1 4h0.5h0.5l0.5 0.5l0.5 0.5
c0 6 -0.333008 10.667 -1 14zM100.021 261.015c4.66699 0 9.66699 1 15 3c4 1.33301 8 4 12 8c2 1.33301 5.66699 5.33301 11 12c2.66699 4.66699 3.66699 10 3 16c-1.33301 4.66699 -3.33301 8.66699 -6 12c-6 2.66699 -9.66699 4.33398 -11 5.00098
c-4 1.33301 -8.33301 1.66602 -13 0.999023c-5.33301 -1.33301 -9.33301 -3 -12 -5v-13v-13c0 -4.66699 0.166992 -9.16699 0.5 -13.5s0.5 -8.5 0.5 -12.5z" />
    <glyph glyph-name="registered" unicode="&#xae;" horiz-adv-x="998" 
d="M445 676c-1.33301 0 -3.33301 -0.668945 -6 -2.00195c-2.66699 -26 -4.33398 -46.333 -5.00098 -61v0v0c18 -3.33301 36.167 0 54.5 10s27.833 23 28.5 39c0.666992 12.667 -0.666016 20.334 -3.99902 23.001c-8.66699 4 -19.667 4.33301 -33 1
s-25 -6.66602 -35 -9.99902zM427 485.998c-0.666992 -9.33301 -1 -22.667 -1 -40c0 -18.667 0.666992 -32.667 2 -42c0 -4 -0.333008 -5.33301 -1 -4c18 -36 9 -64.667 -27 -86s-63 -14 -81 22c-14 27.333 -20.667 57.833 -20 91.5s2 65.167 4 94.5
c4 80 10.333 155.333 19 226c2.66699 26.667 15.5 44.5 38.5 53.5s43.5 8.5 61.5 -1.5c49.333 14 100.5 10.5 153.5 -10.5s75.5 -63.5 67.5 -127.5c-6 -45.333 -23.333 -83.333 -52 -114c17.333 -10.667 34.333 -21.834 51 -33.501l50 -34.5c32 -24 37.333 -54 16 -90
s-48 -42 -80 -18l-96.5 65.5c-33 21.667 -67.833 37.834 -104.5 48.501zM2 453.997c-7.33301 36.667 6.33203 62.0029 40.999 76.0029c-23.333 16.667 -30.666 39 -21.999 67c33.333 111.333 94.166 211.166 182.499 299.499s193.5 137.166 315.5 146.499
c96 6.66699 179.167 -19.833 249.5 -79.5s113.5 -136.5 129.5 -230.5c16 -98 13.5 -205.167 -7.5 -321.5s-75.5 -205.833 -163.5 -268.5c-65.333 -46.667 -138.166 -66.834 -218.499 -60.501s-154.5 26.5 -222.5 60.5c-62 30 -121 71.833 -177 125.5
s-91.667 115.5 -107 185.5zM111.998 520c8 -7.33301 13.667 -18 17 -32c6 -28 18.333 -55 37 -81c35.333 -50.667 84.666 -95 147.999 -133s127 -58 191 -60c87.333 -4 151.833 25.667 193.5 89s66.5 135.666 74.5 216.999c6.66699 82.667 -3.66602 169.834 -30.999 261.501
s-95.333 135.167 -204 130.5c-96 -4 -178.5 -41.667 -247.5 -113s-116.5 -150.333 -142.5 -237c-6 -20 -18 -34 -36 -42z" />
    <glyph glyph-name="ordmasculine" unicode="&#xba;" horiz-adv-x="619" 
d="M123 787c-2.66699 42.667 19.001 62.666 65.001 59.999c1.33301 2.66699 4.66602 6.66699 9.99902 12c37.333 34 80.333 54 129 60s94.667 -5 138 -33c37.333 -24.667 62.333 -60.167 75 -106.5s5.33398 -88.5 -21.999 -126.5
c-28.667 -40.667 -64.834 -70.167 -108.501 -88.5s-89.5 -17.833 -137.5 1.5c-95.333 36.667 -145 110.334 -149 221.001zM255.001 754.999c12 -33.333 35 -58.333 69 -75s62.667 -4.66699 86 36c18 32 9 56.333 -27 73c-34 15.333 -66 9.33301 -96 -18
c-10 -8.66699 -20.667 -14 -32 -16z" />
    <glyph glyph-name="questiondown" unicode="&#xbf;" horiz-adv-x="922" 
d="M722 201c37.333 14.667 61.4971 1.83594 72.4971 -38.4971s-1.83301 -67.833 -38.5 -82.5c-84 -32.667 -175.667 -57 -275 -73s-192.666 -7.66699 -279.999 25c-53.333 20 -101.666 52.167 -144.999 96.5s-61.666 98.5 -54.999 162.5c8.66699 72.667 39 134.5 91 185.5
s109.333 91.833 172 122.5c36 17.333 72.667 33.666 110 48.999s73.666 33 108.999 53c20 12 37.833 25.167 53.5 39.5s17.5 34.166 5.5 59.499c-18 36 -9 64.5 27 85.5s63 13.5 81 -22.5c34 -70 33 -129.167 -3 -177.5s-84.333 -86.833 -145 -115.5l-195.5 -87
c-70.333 -30 -123.166 -75.333 -158.499 -136c-24 -42.667 -26.833 -81.834 -8.5 -117.501s49.833 -61.167 94.5 -76.5c80 -28 162.333 -34.5 247 -19.5s165 37.5 241 67.5zM596.997 1179c40 0 60 -20.833 60 -62.5s-20 -62.5 -60 -62.5c-40.667 0 -61 20.833 -61 62.5
s20.333 62.5 61 62.5z" />
    <glyph glyph-name="Aacute" unicode="&#xc1;" horiz-adv-x="1428" 
d="M698 1316c-38.667 -12.667 -63.501 1.16699 -74.501 41.5s2.5 66.833 40.5 79.5c68 22 136.167 42.5 204.5 61.5s138.5 32.5 210.5 40.5c40 4 59.833 -14.833 59.5 -56.5s-20.166 -64.5 -59.499 -68.5c-66 -8 -130.5 -21.167 -193.5 -39.5s-125.5 -37.833 -187.5 -58.5z
M108.999 222.001c-40 -10 -65.332 5.16602 -75.999 45.499s3.33301 65.5 42 75.5l72 17.5l72 17.5l135.5 435.5l136.5 435.5c6.66699 24 24.334 39 53.001 45s49 -4 61 -30c0.666992 -2.66699 1.66699 -5.33398 3 -8.00098s2.66602 -5 3.99902 -7l157 -348l158 -348
l78.5 18.5l79.5 19.5c38.667 10 63.667 -5.16699 75 -45.5s-2.66699 -65.166 -42 -74.499l-69.5 -17.5l-69.5 -17.5l290 -640c16 -36 6.16699 -64.667 -29.5 -86s-61.834 -13.666 -78.501 23.001c-2.66699 6.66699 -5 11.667 -7 15l-149 329l-149 329l-269.5 -66l-268.5 -66
l-97.5 -310.5l-96.5 -310.5c-12 -38 -38 -51.5 -78 -40.5s-54.333 35.5 -43 73.5l4 14c1.33301 4.66699 3 9 5 13l81 263l83 263c-12 -3.33301 -23.5 -6.33301 -34.5 -9zM804 522l-121.5 267.5l-120.5 268.5l-101 -323l-100 -322l221.5 54.5z" />
    <glyph glyph-name="Eacute" unicode="&#xc9;" horiz-adv-x="1542" 
d="M226 789c-37.333 -16 -61.333 -3.83301 -72 36.5s2.33301 68.5 39 84.5c131.333 54 264 103.5 398 148.5s273.667 67.5 419 67.5c40 0 60 -20.833 60 -62.5s-20 -62.5 -60 -62.5c-138.667 -0.666992 -272.5 -23.167 -401.5 -67.5s-256.5 -92.5 -382.5 -144.5zM236 158
c-30 -18.667 -55.665 -14.335 -76.998 12.998c12 -57.333 29.5 -112.833 52.5 -166.5s54.5 -101.5 94.5 -143.5c64.667 -68 138.834 -106.833 222.501 -116.5s169.167 -3.5 256.5 18.5c96.667 24.667 190.667 57.834 282 99.501s181.333 85.5 270 131.5
c35.333 18 63.5 9.16699 84.5 -26.5s13.833 -62.834 -21.5 -81.501l-276.5 -137c-103 -49.333 -207.833 -86.833 -314.5 -112.5s-210.834 -31.667 -312.501 -18s-191.5 61.834 -269.5 144.501c-128.667 136 -199.834 304 -213.501 504s-9.5 387 12.5 561
c5.33301 40 27.833 54.5 67.5 43.5s56.834 -36.167 51.501 -75.5c-11.333 -82 -18 -164.833 -20 -248.5s2 -166.5 12 -248.5l9 -65c5.33301 13.333 14.333 24 27 32c120.667 74.667 244 145.334 370 212.001s260.333 112 403 136c39.333 6 64.666 -11.167 75.999 -51.5
s-2.66699 -63.5 -42 -69.5c-138 -23.333 -267.333 -67 -388 -131s-239.334 -132 -356.001 -204zM594.002 1160c-26.667 -30.667 -55 -31.6689 -85 -3.00195s-32 58.334 -6 89.001c46 54.667 93.333 107.834 142 159.501s101.667 99.5 159 143.5
c32 24 58.667 18.167 80 -17.5s16.333 -65.5 -15 -89.5c-52.667 -40 -101.167 -84.5 -145.5 -133.5z" />
    <glyph glyph-name="Iacute" unicode="&#xcd;" horiz-adv-x="391" 
d="M77 1551c-38.667 -13.333 -63.332 0.166016 -73.999 40.499s2.66602 66.833 39.999 79.5c68 22.667 136.167 43.334 204.5 62.001s138.5 32 210.5 40c40 4 60 -14.833 60 -56.5s-20 -64.5 -60 -68.5c-66 -8 -130.5 -21.167 -193.5 -39.5s-125.5 -37.5 -187.5 -57.5z
M0.00195312 1358c-1.33301 40 18.668 60.001 60.001 60.001s63 -20 65 -60c13.333 -282 18.833 -564 16.5 -846s14.167 -563 49.5 -843c4.66699 -40 -13.833 -59.833 -55.5 -59.5s-64.834 20.166 -69.501 59.499c-34.667 280 -51 561 -49 843s-3.66699 564 -17 846z" />
    <glyph glyph-name="Ntilde" unicode="&#xd1;" horiz-adv-x="1643" 
d="M0 1146c-3.33301 40 15.833 59.9971 57.5 59.9971s64.5 -20 68.5 -60l49.5 -492c17 -164 36.5 -327.667 58.5 -491c10 62.667 20.333 118.334 31 167.001c19.333 93.333 44.666 187.333 75.999 282s77 180 137 256c50 62.667 113.833 108 191.5 136
s154.5 20.667 230.5 -22c88.667 -51.333 162.334 -124.166 221.001 -218.499s110 -185.5 154 -273.5c47.333 -94 91.333 -189.667 132 -287s85 -192.333 133 -285c18 -36 9 -64.5 -27 -85.5s-63 -13.5 -81 22.5c-39.333 76 -75.833 153.5 -109.5 232.5l-104.5 235.5
l-78.5 158.5c-27 53 -56.167 104.5 -87.5 154.5c-25.333 38.667 -52.666 77.834 -81.999 117.501s-63 73.167 -101 100.5c-66.667 45.333 -129.667 51.833 -189 19.5s-107 -78.833 -143 -139.5c-50 -84 -87.667 -174.5 -113 -271.5s-46 -193.167 -62 -288.5
c-14 -84 -25.167 -167.667 -33.5 -251s-15.5 -167.333 -21.5 -252c-2.66699 -32.667 -22.334 -52.667 -59.001 -60s-58 7 -64 43c-42 246.667 -77 494.5 -105 743.5s-54.333 498.5 -79 748.5zM508.999 1241h407c41.333 0 62 -20.667 62 -62v0c0 -42 -20.667 -63 -62 -63
h-407c-42 0 -63 21 -63 63v0c0 41.333 21 62 63 62z" />
    <glyph glyph-name="Oacute" unicode="&#xd3;" horiz-adv-x="1390" 
d="M88 -211c-27.333 30 -26.3301 59.8379 3.00293 89.5049s58 29.5 86 -0.5c67.333 -73.333 143.833 -117.833 229.5 -133.5s171.167 -10.834 256.5 14.499s165.5 66.833 240.5 124.5s135.5 122.834 181.5 195.501c25.333 41.333 46.666 85.166 63.999 131.499
s26.333 94.5 27 144.5c0 54 -8.33301 108.167 -25 162.5s-37.667 105.166 -63 152.499c-40 72.667 -92.333 134.167 -157 184.5s-140.334 72.5 -227.001 66.5c-82 -6 -158.5 -33.333 -229.5 -82s-129.5 -105.667 -175.5 -171c-65.333 -92 -111.666 -191.333 -138.999 -298
s-38.666 -215.334 -33.999 -326.001c2 -40 -17.833 -60 -59.5 -60s-63.5 20 -65.5 60c-4.66699 140.667 14.5 281.167 57.5 421.5s114.5 262.5 214.5 366.5c75.333 77.333 167.166 138 275.499 182s217.166 47.333 326.499 10c95.333 -33.333 173.666 -88.5 234.999 -165.5
s108.666 -161.5 141.999 -253.5c18.667 -54 32.334 -107.667 41.001 -161s9 -108 1 -164c-15.333 -101.333 -53.666 -196 -114.999 -284c-59.333 -84.667 -134.333 -159.834 -225 -225.501s-186.667 -111.834 -288 -138.501s-202.833 -29.167 -304.5 -7.5
s-192.834 76.5 -273.501 164.5zM724.003 1160c-38.667 -12.667 -63.334 0.999023 -74.001 40.999s3 66.667 41 80c68 22 136.167 42.5 204.5 61.5s138.5 32.5 210.5 40.5c40 4 59.833 -15 59.5 -57s-20.166 -65 -59.499 -69c-66 -7.33301 -130.667 -20.166 -194 -38.499
s-126 -37.833 -188 -58.5z" />
    <glyph glyph-name="Uacute" unicode="&#xda;" horiz-adv-x="1681" 
d="M777 1097c-26.667 -31.333 -55.167 -32.668 -85.5 -4.00098s-32.5 58.334 -6.5 89.001c46 54.667 93.333 107.834 142 159.501s101.667 99.5 159 143.5c32 24.667 58.833 19.167 80.5 -16.5s16.5 -65.5 -15.5 -89.5c-52 -40.667 -100.167 -85.334 -144.5 -134.001z
M1547 -331.002c4 -40 -14.8369 -59.834 -56.5039 -59.501s-64.5 20.166 -68.5 59.499l-51 491.5c-17.333 163.667 -36.666 327.5 -57.999 491.5c-9.33301 -56 -19.333 -112 -30 -168c-20 -93.333 -45.667 -187.166 -77 -281.499s-76.666 -179.166 -135.999 -254.499
c-50 -63.333 -114 -109 -192 -137s-154.667 -20.667 -230 22c-89.333 51.333 -163.333 123.833 -222 217.5s-110 184.834 -154 273.501c-47.333 94 -91.166 189.5 -131.499 286.5s-84.5 192.5 -132.5 286.5c-18 36 -9.16699 64.5 26.5 85.5s62.834 13.5 81.501 -22.5
c38.667 -76 74.667 -153.667 108 -233s68.666 -158 105.999 -236c24.667 -53.333 50.5 -106.166 77.5 -158.499s56.5 -103.5 88.5 -153.5c24 -39.333 50.833 -78.833 80.5 -118.5s63.834 -72.5 102.501 -98.5c66 -46 128.667 -52.833 188 -20.5s107.333 78.5 144 138.5
c50 84 87.5 174.5 112.5 271.5s45.5 193.167 61.5 288.5c14 84 25.167 168 33.5 252s15.5 168 21.5 252c2 33.333 21.5 53.666 58.5 60.999s58.5 -7.33398 64.5 -44.001c41.333 -248 76 -496.5 104 -745.5s54.667 -497.833 80 -746.5z" />
    <glyph glyph-name="aacute" unicode="&#xe1;" horiz-adv-x="796" 
d="M346 828c-30.667 -26.667 -60.833 -25.333 -90.5 4s-29.167 57.333 1.5 84l93.5 80.5l93.5 81.5c30 26 59.833 24.167 89.5 -5.5s29.5 -57.5 -0.5 -83.5l-94.5 -80.5zM493.001 775.001c31.333 8.66699 53.999 -0.831055 67.999 -28.498s13.667 -51.834 -1 -72.501
c19.333 -12.667 30 -30 32 -52c7.33301 -92 17 -183.833 29 -275.5s26 -183.167 42 -274.5c6 -40 -11 -65.667 -51 -77s-63.333 3 -70 43c-9.33301 54 -18.166 108.5 -26.499 163.5s-15.833 110.167 -22.5 165.5c-28 -52 -55.333 -97.333 -82 -136
c-32 -44 -77.667 -95 -137 -153s-120 -67 -182 -27c-74 48 -107.5 112.167 -100.5 192.5s32.833 152.166 77.5 215.499c51.333 72 113.5 136.667 186.5 194s152.167 98 237.5 122zM468 631.003c-116.667 -48.667 -210.999 -124.335 -282.999 -227.002
c-16.667 -22.667 -33 -48.167 -49 -76.5s-23.667 -57.166 -23 -86.499c0 -25.333 5.33301 -43.666 16 -54.999c8.66699 -12 17 -19.667 25 -23l2 -1c13.333 0 28.666 7.16699 45.999 21.5s32.333 28.5 45 42.5c36 40.667 70.333 88.667 103 144l70 125
c24 44.667 40 90 48 136z" />
    <glyph glyph-name="eacute" unicode="&#xe9;" horiz-adv-x="796" 
d="M139 356c6 -24.667 15.3359 -42 28.0029 -52c8 -8.66699 22.667 -12 44 -10c27.333 2 56.166 11.833 86.499 29.5s57.5 35.5 81.5 53.5c54 40 106.667 85.333 158 136s95 105 131 163c21.333 34 50 40.5 86 19.5s43.333 -48.5 22 -82.5c-22 -36 -47 -70.167 -75 -102.5
s-56.667 -63.5 -86 -93.5c-53.333 -52.667 -118.333 -109.167 -195 -169.5s-156 -86.5 -238 -78.5c-100.667 9.33301 -157.834 70.333 -171.501 183s-7.16699 205 19.5 277c12.667 34 32.334 65.833 59.001 95.5s59 48.5 97 56.5c28.667 6 59.167 6 91.5 0
s58.5 -21 78.5 -45c65.333 -79.333 62.166 -154 -9.50098 -224s-140.834 -122 -207.501 -156zM126.003 489c28.667 15.333 56 33.334 82 54.001s45.333 45 58 73c2.66699 6.66699 4 13.667 4 21v5c-5.33301 9.33301 -12 15 -20 17c-14 3.33301 -28.333 2.66602 -43 -2.00098
c-16 -5.33301 -30 -17 -42 -35c-23.333 -38 -36.333 -82.333 -39 -133zM498.003 803.001c-30 -26.667 -59.833 -25.333 -89.5 4s-29.167 57.333 1.5 84l93 80.5l94 81.5c30 26 59.667 24.167 89 -5.5s29 -57.5 -1 -83.5l-93.5 -81z" />
    <glyph glyph-name="iacute" unicode="&#xed;" horiz-adv-x="265" 
d="M17 498c0 40 20.833 60 62.5 60s62.5 -20 62.5 -60c-0.666992 -73.333 -3.33398 -146.333 -8.00098 -219s-7 -145.334 -7 -218.001c0 -40 -20.833 -60 -62.5 -60s-62.5 20 -62.5 60c0 72.667 2.33301 145.334 7 218.001s7.33398 145.667 8.00098 219zM116 712
c-10.667 -18.667 -27.667 -28 -51 -28c-32 0 -51.667 14.667 -59 44c-10.667 25.333 -5.66699 47.333 15 66l92.5 80.5l93.5 81.5c30 26 59.833 24.333 89.5 -5s29.5 -57 -0.5 -83l-90 -78z" />
    <glyph glyph-name="ntilde" unicode="&#xf1;" horiz-adv-x="821" 
d="M0 726c-2 40 17.6689 60 59.002 60s63.333 -20 66 -60c2 -36 4.5 -71.833 7.5 -107.5s5.83301 -71.5 8.5 -107.5c14 36 32.5 70 55.5 102s52.5 56 88.5 72c61.333 26 114.666 23.5 159.999 -7.5s85 -74.167 119 -129.5s63 -114.666 87 -177.999s45.333 -114 64 -152
c17.333 -36 8 -64.5 -28 -85.5s-62.667 -13.5 -80 22.5c-8 16 -21.833 49.667 -41.5 101s-42.334 102.833 -68.001 154.5s-53 95.167 -82 130.5s-56.833 45 -83.5 29c-34 -20.667 -58.667 -52.834 -74 -96.501s-27 -83.167 -35 -118.5c-10 -40 -18 -80.167 -24 -120.5
s-11 -80.5 -15 -120.5c-4 -32 -24.333 -52.333 -61 -61s-57.334 6 -62.001 44c-14.667 104 -26.667 208.5 -36 313.5s-17.666 210.167 -24.999 315.5zM250.002 934l234.999 -27c40 -5.33301 57.667 -27.666 53 -66.999v0c-5.33301 -40.667 -27.666 -58.334 -66.999 -53.001
l-235 27c-40 4.66699 -57.333 27 -52 67v0c3.33301 40 25.333 57.667 66 53z" />
    <glyph glyph-name="oacute" unicode="&#xf3;" horiz-adv-x="796" 
d="M62 89c-27.333 30 -26.333 59.8359 3 89.5029s58 29.5 86 -0.5c42 -47.333 91.333 -64.333 148 -51s104.334 40.666 143.001 81.999c40.667 43.333 64.667 94.666 72 153.999s-10 113 -52 161c-67.333 76 -141 77.5 -221 4.5s-118.667 -146.5 -116 -220.5
c1.33301 -40 -18.834 -60 -60.501 -60s-63.167 20 -64.5 60c-2 68.667 18.5 135.334 61.5 200.001s95.333 114.167 157 148.5s126 47.5 193 39.5s123.167 -49.333 168.5 -124c47.333 -78.667 65.333 -161.334 54 -248.001s-52 -160.334 -122 -221.001
c-65.333 -56 -140.833 -89.667 -226.5 -101s-160.167 17.667 -223.5 87zM375 776.003c-30 -26.667 -59.833 -25.333 -89.5 4s-29.167 57.333 1.5 84l92.5 80.5l93.5 81.5c30 26 59.833 24.333 89.5 -5s29.5 -57 -0.5 -83l-93.5 -81.5z" />
    <glyph glyph-name="uacute" unicode="&#xfa;" horiz-adv-x="884" 
d="M745 66c4 -40 -14.8301 -59.8271 -56.4971 -59.4941s-64.5 20.166 -68.5 59.499l-11.5 106l-11.5 107c-14 -37.333 -31.833 -72.5 -53.5 -105.5s-50.167 -57.833 -85.5 -74.5c-60.667 -28.667 -114.334 -28 -161.001 2s-87.834 72.5 -123.501 127.5
s-66.5 113.667 -92.5 176s-48.667 112.166 -68 149.499c-18 35.333 -9.33301 63.666 26 84.999s62.666 14 81.999 -22c8.66699 -16.667 23.5 -50.334 44.5 -101.001s45 -101.167 72 -151.5s55.667 -92.333 86 -126s59.166 -41.5 86.499 -23.5
c32 20.667 54.833 53.5 68.5 98.5s24.167 85.167 31.5 120.5c8 40 14.333 80.167 19 120.5s8.66699 81.166 12 122.499c2 32.667 21.333 52.667 58 60s58.334 -7.33398 65.001 -44.001c18 -104 33.167 -208.333 45.5 -313zM346.003 705.006
c-30.667 -26.667 -60.833 -25.333 -90.5 4s-29.167 57.333 1.5 84l93.5 80.5l93.5 81.5c30 26 59.833 24.167 89.5 -5.5s29.5 -57.5 -0.5 -83.5l-94.5 -81.5z" />
    <glyph glyph-name="udieresis" unicode="&#xfc;" horiz-adv-x="847" 
d="M740 114c4 -40 -14.8301 -59.999 -56.4971 -59.999s-64.5 20 -68.5 60l-11.5 106l-11.5 107c-14 -37.333 -31.833 -72.666 -53.5 -105.999s-50.167 -58 -85.5 -74c-60.667 -28.667 -114.334 -28 -161.001 2s-87.834 72.333 -123.501 127s-66.5 113.334 -92.5 176.001
s-48.667 112.667 -68 150c-18 35.333 -9.33301 63.5 26 84.5s62.666 13.833 81.999 -21.5c8.66699 -16.667 23.5 -50.334 44.5 -101.001s45 -101.167 72 -151.5s55.667 -92.333 86 -126s59.166 -41.5 86.499 -23.5c32 21.333 54.833 54.333 68.5 99s24.167 84.667 31.5 120
c8 40 14.333 80.167 19 120.5s8.66699 81.166 12 122.499c2 32.667 21.333 52.667 58 60s58.334 -7.33398 65.001 -44.001c18 -104 33.167 -208.333 45.5 -313zM198.003 807.001c3.33301 -40.667 -14.667 -62.667 -54 -66c-40 -5.33301 -61.667 12.667 -65 54
c-4 38.667 14 60.667 54 66c39.333 3.33301 61 -14.667 65 -54zM468.003 848.001c3.33301 -39.333 -14.668 -61.333 -54.001 -66c-40 -4 -61.667 14.333 -65 55c-5.33301 39.333 12.334 61 53.001 65c38.667 4.66699 60.667 -13.333 66 -54z" />
    <glyph glyph-name="NULL" horiz-adv-x="0" 
 />
    <glyph glyph-name="nonmarkingreturn" horiz-adv-x="2048" 
 />
  </font>
</defs>
</svg>
